<svg xmlns="http://www.w3.org/2000/svg" xmlns:xlink="http://www.w3.org/1999/xlink" width="511.784" height="369.355" viewBox="0 0 511.784 369.355">
  <defs>
    <linearGradient id="linear-gradient" x1="-11.741" y1="5.084" x2="-11.741" y2="4.933" gradientUnits="objectBoundingBox">
      <stop offset="0" stop-color="gray" stop-opacity="0.251"/>
      <stop offset="0.535" stop-color="gray" stop-opacity="0.122"/>
      <stop offset="1" stop-color="gray" stop-opacity="0.102"/>
    </linearGradient>
  </defs>
  <g id="undraw_Graduation_ktn0" transform="translate(-0.005)">
    <ellipse id="Ellipse_155" data-name="Ellipse 155" cx="22.581" cy="3.387" rx="22.581" ry="3.387" transform="translate(6.078 203.447) rotate(-63.611)" fill="#e0e0e0"/>
    <ellipse id="Ellipse_156" data-name="Ellipse 156" cx="22.581" cy="2.301" rx="22.581" ry="2.301" transform="translate(289.213 344.061) rotate(-63.611)" fill="#e0e0e0"/>
    <rect id="Rectangle_126" data-name="Rectangle 126" width="13.549" height="45.163" transform="translate(141.818 260.777) rotate(39.547)" fill="#f55f44"/>
    <rect id="Rectangle_127" data-name="Rectangle 127" width="15.245" height="45.163" transform="translate(143.083 310.496) rotate(-166.769)" opacity="0.05"/>
    <rect id="Rectangle_128" data-name="Rectangle 128" width="13.549" height="45.163" transform="translate(143.083 310.496) rotate(-166.769)" fill="#f55f44"/>
    <rect id="Rectangle_129" data-name="Rectangle 129" width="47.421" height="315.01" transform="translate(8.61 205.963) rotate(-63.611)" fill="url(#linear-gradient)"/>
    <path id="Path_298" data-name="Path 298" d="M498.62,599.1C493.1,596.45,212.39,457.081,216.436,459.088c15.58-23.78,20.073-40.457,20.073-40.457L518.693,558.643S508.783,576.034,498.62,599.1Z" transform="translate(-207.325 -254.136)" fill="#f5f5f5"/>
    <rect id="Rectangle_130" data-name="Rectangle 130" width="25.969" height="45.163" transform="translate(152.576 225.721) rotate(26.389)" opacity="0.05"/>
    <rect id="Rectangle_131" data-name="Rectangle 131" width="23.71" height="45.163" transform="translate(153.588 226.223) rotate(26.389)" fill="#f55f44"/>
    <rect id="Rectangle_132" data-name="Rectangle 132" width="15.807" height="45.163" transform="translate(156.622 227.729) rotate(26.389)" opacity="0.05"/>
    <rect id="Rectangle_133" data-name="Rectangle 133" width="13.549" height="45.163" transform="translate(157.633 228.231) rotate(26.389)" fill="#f55f44"/>
    <circle id="Ellipse_157" data-name="Ellipse 157" cx="1.883" cy="1.883" r="1.883" transform="translate(166.254 360.969)" fill="#dbdbdb"/>
    <g id="Group_115" data-name="Group 115" transform="translate(14.411 310.138)" opacity="0.5">
      <rect id="Rectangle_134" data-name="Rectangle 134" width="1.93" height="10.938" transform="translate(4.504)" fill="#47e6b1"/>
      <rect id="Rectangle_135" data-name="Rectangle 135" width="1.93" height="10.938" transform="translate(10.938 4.504) rotate(90)" fill="#47e6b1"/>
    </g>
    <g id="Group_116" data-name="Group 116" transform="translate(500.851 173.729)" opacity="0.5">
      <rect id="Rectangle_136" data-name="Rectangle 136" width="1.93" height="10.938" transform="translate(4.504)" fill="#47e6b1"/>
      <rect id="Rectangle_137" data-name="Rectangle 137" width="1.93" height="10.938" transform="translate(10.938 4.504) rotate(90)" fill="#47e6b1"/>
    </g>
    <g id="Group_117" data-name="Group 117" transform="translate(25.993 37.963)" opacity="0.5">
      <rect id="Rectangle_138" data-name="Rectangle 138" width="1.93" height="10.938" transform="translate(4.504)" fill="#47e6b1"/>
      <rect id="Rectangle_139" data-name="Rectangle 139" width="1.93" height="10.938" transform="translate(10.938 4.504) rotate(90)" fill="#47e6b1"/>
    </g>
    <g id="Group_118" data-name="Group 118" transform="translate(442.941 21.233)" opacity="0.5">
      <rect id="Rectangle_140" data-name="Rectangle 140" width="1.93" height="10.938" transform="translate(4.504)" fill="#47e6b1"/>
      <rect id="Rectangle_141" data-name="Rectangle 141" width="1.93" height="10.938" transform="translate(10.938 4.504) rotate(90)" fill="#47e6b1"/>
    </g>
    <path id="Path_299" data-name="Path 299" d="M210.213,414.011a2.364,2.364,0,0,1-1.317-2.858,1.135,1.135,0,0,0,.051-.262h0a1.186,1.186,0,0,0-2.13-.786h0a1.136,1.136,0,0,0-.131.233,2.364,2.364,0,0,1-2.857,1.317,1.13,1.13,0,0,0-.262-.051h0a1.186,1.186,0,0,0-.786,2.13h0a1.138,1.138,0,0,0,.233.131,2.364,2.364,0,0,1,1.317,2.857,1.14,1.14,0,0,0-.051.262h0a1.186,1.186,0,0,0,2.13.786h0a1.135,1.135,0,0,0,.131-.233,2.364,2.364,0,0,1,2.858-1.318,1.142,1.142,0,0,0,.262.051h0a1.186,1.186,0,0,0,.786-2.13h0A1.134,1.134,0,0,0,210.213,414.011Z" transform="translate(-202.303 -250.928)" fill="#4d8af0" opacity="0.5"/>
    <path id="Path_300" data-name="Path 300" d="M382.213,217.011a2.364,2.364,0,0,1-1.317-2.857,1.135,1.135,0,0,0,.051-.262h0a1.186,1.186,0,0,0-2.13-.786h0a1.134,1.134,0,0,0-.131.233,2.364,2.364,0,0,1-2.858,1.317,1.136,1.136,0,0,0-.262-.051h0a1.186,1.186,0,0,0-.786,2.13h0a1.14,1.14,0,0,0,.233.131,2.364,2.364,0,0,1,1.317,2.858,1.13,1.13,0,0,0-.051.262h0a1.186,1.186,0,0,0,2.13.786h0a1.139,1.139,0,0,0,.131-.233,2.364,2.364,0,0,1,2.857-1.317,1.135,1.135,0,0,0,.262.051h0a1.186,1.186,0,0,0,.786-2.13h0a1.138,1.138,0,0,0-.233-.131Z" transform="translate(-263.631 -180.685)" fill="#4d8af0" opacity="0.5"/>
    <path id="Path_301" data-name="Path 301" d="M592.213,728.011a2.364,2.364,0,0,1-1.318-2.857,1.128,1.128,0,0,0,.051-.262h0a1.186,1.186,0,0,0-2.13-.786h0a1.139,1.139,0,0,0-.131.233,2.364,2.364,0,0,1-2.857,1.318,1.131,1.131,0,0,0-.262-.051h0a1.186,1.186,0,0,0-.786,2.13h0a1.145,1.145,0,0,0,.233.131,2.364,2.364,0,0,1,1.317,2.857,1.152,1.152,0,0,0-.052.262h0a1.186,1.186,0,0,0,2.13.786h0a1.134,1.134,0,0,0,.131-.233,2.364,2.364,0,0,1,2.857-1.317,1.143,1.143,0,0,0,.262.052h0a1.186,1.186,0,0,0,.786-2.13h0A1.154,1.154,0,0,0,592.213,728.011Z" transform="translate(-338.509 -362.888)" fill="#4d8af0" opacity="0.5"/>
    <circle id="Ellipse_158" data-name="Ellipse 158" cx="3.861" cy="3.861" r="3.861" transform="translate(484.765 281.826)" fill="#f55f44" opacity="0.5"/>
    <circle id="Ellipse_159" data-name="Ellipse 159" cx="3.861" cy="3.861" r="3.861" transform="translate(399.831 306.277)" fill="#4d8af0" opacity="0.5"/>
    <circle id="Ellipse_160" data-name="Ellipse 160" cx="3.861" cy="3.861" r="3.861" transform="translate(62.669 344.24)" fill="#47e6b1" opacity="0.5"/>
    <circle id="Ellipse_161" data-name="Ellipse 161" cx="3.861" cy="3.861" r="3.861" transform="translate(260.848)" fill="#f55f44" opacity="0.5"/>
    <path id="Path_302" data-name="Path 302" d="M398.64,491.6,383.2,514.763s5.148,23.807,119.036,23.164,122.9-23.164,122.9-23.164L603.9,483.878l-64.987-44.4Z" transform="translate(-266.801 -261.57)" fill="#2b2b54"/>
    <path id="Path_303" data-name="Path 303" d="M398.64,491.6,383.2,514.763s5.148,23.807,119.036,23.164,122.9-23.164,122.9-23.164L603.9,483.878l-64.987-44.4Z" transform="translate(-266.801 -261.57)" opacity="0.15"/>
    <path id="Path_304" data-name="Path 304" d="M466.158,166.95,263.475,256.388,16.394,166.95,242.885,64l111.18,51.263,3.983,1.84Z" transform="translate(-5.844 -22.82)" fill="#2b2b54"/>
    <path id="Path_305" data-name="Path 305" d="M466.158,166.95,263.475,256.388,16.394,166.95,242.885,64l111.18,51.263,3.983,1.84Z" transform="translate(-5.844 -22.82)" opacity="0.15"/>
    <path id="Path_306" data-name="Path 306" d="M549.362,216.8l-3.861.232-4.318-73.358,3.983,1.84Z" transform="translate(-192.963 -51.227)" fill="#f5f5f5"/>
    <path id="Path_307" data-name="Path 307" d="M401.213,379.219,383.2,488.6s129.331-41.823,241.933,0L608.4,372.784S457.193,354.124,401.213,379.219Z" transform="translate(-266.801 -235.41)" fill="#2b2b54"/>
    <ellipse id="Ellipse_162" data-name="Ellipse 162" cx="18.66" cy="12.869" rx="18.66" ry="12.869" transform="translate(337.417 162.147)" fill="#f5f5f5"/>
  </g>
</svg>
