<svg xmlns="http://www.w3.org/2000/svg" xmlns:xlink="http://www.w3.org/1999/xlink" width="266.953" height="234.74" viewBox="0 0 266.953 234.74">
  <defs>
    <linearGradient id="linear-gradient" x1="0.5" x2="0.5" y2="1" gradientUnits="objectBoundingBox">
      <stop offset="0" stop-color="#fffdbb"/>
      <stop offset="1" stop-color="#ffc881"/>
    </linearGradient>
    <linearGradient id="linear-gradient-3" x1="0.5" x2="0.5" y2="1" gradientUnits="objectBoundingBox">
      <stop offset="0" stop-color="#53e6db"/>
      <stop offset="1" stop-color="#53d2c5"/>
    </linearGradient>
    <linearGradient id="linear-gradient-5" x1="0.5" x2="0.5" y2="1" gradientUnits="objectBoundingBox">
      <stop offset="0" stop-color="#ffc28a"/>
      <stop offset="1" stop-color="#ff6661"/>
    </linearGradient>
    <linearGradient id="linear-gradient-7" x1="0.5" x2="0.5" y2="1" gradientUnits="objectBoundingBox">
      <stop offset="0" stop-color="#f75770"/>
      <stop offset="1" stop-color="#f54467"/>
    </linearGradient>
  </defs>
  <g id="Group_614" data-name="Group 614" transform="translate(-52.047 -963.021)">
    <g id="planet-1" transform="translate(74.461 981.564)">
      <path id="Path_41" data-name="Path 41" d="M590.487,422.831a22.5,22.5,0,0,1-1.124,3.06c-6.495,14.254-26.431,14.886-35.408,4.684-6.424-7.267-6.057-21.958,2.42-29.311a17.415,17.415,0,0,1,6.081-3.427C577.483,392.989,595.382,405.65,590.487,422.831Z" transform="translate(-549.529 -396.793)" fill="#e08ed1"/>
      <path id="Path_42" data-name="Path 42" d="M591.056,420.622a19.513,19.513,0,0,0,.234-4.387c-2.662.64-7.416,1.959-11.81,8.29-2.49,3.583-5.8,6.807-10.725,7.861a11.639,11.639,0,0,0,4.816-3.638c3.856-5.05,6.51-11.092,13.27-13.387a27.322,27.322,0,0,0,4.114-1.741c-1.561-7.736-7.931-13.567-15.487-15.69-4.278,4.114-5.995,10.811-11.053,13.091-4.566,2.061-9.789-1.983-12.177-4.215a22.123,22.123,0,0,0-2.037,5.4c3.239,2.638,8.711,4.613,12.4,3.755,4.684-1.085,1.811,3.622-3.981,2.779a19.023,19.023,0,0,1-8.852-4.176,24.329,24.329,0,0,0-.125,5.269c12.091,7.642,21.24,2.763,25.861-5.316,4.824-8.438,9.281-7.236,5.3-1.686S572,429.107,561.612,428.748a17.446,17.446,0,0,1-11.139-4.395,17.468,17.468,0,0,0,2.786,5.636h0l.055.07c.211.281.437.554.671.82,9.367,10.577,30.521,9.469,36.118-6.487-2.342,2.084-6.089,5.246-9.172,6.791-4.824,2.412.726-2.654,3.739-6.752a10.562,10.562,0,0,1,6.385-3.809Z" transform="translate(-549.535 -397.042)" fill="#b9319b"/>
      <path id="Path_43" data-name="Path 43" d="M589.383,427.148c-6.495,14.254-26.431,14.886-35.408,4.684-6.424-7.267-6.058-21.958,2.42-29.311-.937,4.41-2.342,15.612,5.355,22.707S582.444,431.87,589.383,427.148Z" transform="translate(-549.533 -398.049)" fill="rgba(185,49,155,0.6)" opacity="0.69"/>
      <path id="Path_44" data-name="Path 44" d="M568.078,400.425c-3.122.406-4.324,5.464.952,5.706S575.431,399.472,568.078,400.425Z" transform="translate(-553.012 -397.57)" fill="rgba(243,255,254,0.7)"/>
      <path id="Path_45" data-name="Path 45" d="M581.767,402.77c-4.98,0-3.724,5.277.343,6.143s8.735,5.464,9.086,11.764,5.706-2.076,2.076-9.6S584.187,402.77,581.767,402.77Z" transform="translate(-555.889 -398.104)" fill="rgba(243,255,254,0.7)"/>
    </g>
    <g id="planet-2" transform="translate(177.808 1094.264)">
      <path id="Path_46" data-name="Path 46" d="M1092.452,465.666c1.311,14.8-6.441,28.026-17.342,34.292-14.452,8.341-43.511,9.291-53.565-11.438a41.993,41.993,0,0,1-1.352-33.91,32.723,32.723,0,0,1,21.43-19.49c19.335-5.543,40.486.764,48.022,19.139A39.4,39.4,0,0,1,1092.452,465.666Z" transform="translate(-981.412 -433.179)" fill="#c43553"/>
      <path id="Path_47" data-name="Path 47" d="M1053.165,452.3c9.115-6.741,12.717-13.162,14.132-17.466a46.961,46.961,0,0,0-25.684.289,32.167,32.167,0,0,0-17.941,13c4.129-.661,14.349-2.385,20.914-4.6,8.258-2.787,2.808,8.372-25.012,12.7a39.576,39.576,0,0,0-2.065,8.754C1024.209,464.252,1040.6,461.588,1053.165,452.3Z" transform="translate(-981.404 -433.179)" fill="#ec91a2"/>
      <path id="Path_48" data-name="Path 48" d="M1052.315,483.727c20.418-9.518,30.71-27.438,34.426-35.335a31.618,31.618,0,0,0-3.3-4.232c-3.386,7.412-14.565,20.295-27.593,27.428-14.586,7.99-33.126,11.138-33.8,8.836s3.685-4.181,17.146-8.589,22.607-14.06,21.368-15.123-1.972,0-17.621,7.6a82.457,82.457,0,0,1-25.631,7.35,42.8,42.8,0,0,0,4.232,16.517,28.091,28.091,0,0,0,3.1,5.027A128.7,128.7,0,0,0,1052.315,483.727Z" transform="translate(-981.41 -432.824)" fill="#ec91a2"/>
      <path id="Path_49" data-name="Path 49" d="M1074.029,499.017c11.49-6.6,19.469-20.924,17.053-36.687-5.781,9.642-18.653,22.308-29.09,27.872-14.514,7.721-.743,5.7,9.724-.454,9.363-5.512.6,7.618-21,14.813C1059.4,504.684,1067.979,502.5,1074.029,499.017Z" transform="translate(-980.332 -432.238)" fill="#ec91a2"/>
      <path id="Path_50" data-name="Path 50" d="M1092.452,465c1.311,14.8-6.441,28.026-17.342,34.292-14.452,8.341-43.511,9.29-53.565-11.438a41.993,41.993,0,0,1-1.352-33.91c2.064,14.214,17.239,29.936,34.664,32C1071.919,488.067,1087.435,477.445,1092.452,465Z" transform="translate(-981.412 -432.509)" fill="rgba(196,53,83,0.4)"/>
      <path id="Path_51" data-name="Path 51" d="M1037.366,440.943c-5.492,2.065-5.461,11.613,4.129,9.848S1050.145,436.123,1037.366,440.943Z" transform="translate(-980.882 -432.963)" fill="rgba(255,255,255,0.7)"/>
      <path id="Path_52" data-name="Path 52" d="M1056.934,439.657c-8.929,2.065-4.439,11.035,3.221,10.87s17.982,6.08,21.275,17.26,9.363-6.142-.341-18.106S1061.29,438.625,1056.934,439.657Z" transform="translate(-980.291 -432.988)" fill="rgba(255,255,255,0.7)"/>
      <path id="Path_53" data-name="Path 53" d="M1122.879,442.313c-5.925-6.958-32.785-.939-39.578.723a31.93,31.93,0,0,1,6.916,9.8c2.715-.7,14.122-3.561,14.328-1.765.32,2.7-18.5,17.394-41.539,27s-57.519,18.282-56.92,13.925c.444-3.3,14.163-9.734,14.163-9.734v-.134a43.116,43.116,0,0,1-1.806-10.209c-12.171,5.492-40.466,22.483-35.284,30.163s53.575-2.065,82.232-14.989S1129.682,450.292,1122.879,442.313Z" transform="translate(-982.533 -432.99)" fill="#f54a6a"/>
    </g>
    <path id="Path_792" data-name="Path 792" d="M604.06,510.1c6.2-1.222,6.749-7.578,6.749-7.578s.549,6.351,6.749,7.578c-6.2,1.222-6.749,7.578-6.749,7.578S610.26,511.32,604.06,510.1Z" transform="translate(-320.122 665.96)" fill="url(#linear-gradient)"/>
    <path id="Path_793" data-name="Path 793" d="M604.06,508.384c4.8-.946,5.223-5.864,5.223-5.864s.425,4.915,5.223,5.864c-4.8.946-5.223,5.864-5.223,5.864S608.857,509.329,604.06,508.384Z" transform="translate(-486.355 574.148)" fill="url(#linear-gradient)"/>
    <circle id="Ellipse_379" data-name="Ellipse 379" cx="2.342" cy="2.342" r="2.342" transform="translate(183.728 974.191)" fill="url(#linear-gradient-3)"/>
    <circle id="Ellipse_381" data-name="Ellipse 381" cx="2.342" cy="2.342" r="2.342" transform="translate(160.714 969.453)" fill="url(#linear-gradient-3)"/>
    <circle id="Ellipse_382" data-name="Ellipse 382" cx="4.207" cy="4.207" r="4.207" transform="translate(255.629 1189.346)" fill="url(#linear-gradient-5)"/>
    <path id="Path_803" data-name="Path 803" d="M604.06,515.009c10.218-2.014,11.124-12.489,11.124-12.489s.905,10.468,11.123,12.489c-10.218,2.014-11.123,12.49-11.123,12.49S614.278,517.023,604.06,515.009Z" transform="translate(-552.013 621.817)" fill="url(#linear-gradient)"/>
    <circle id="Ellipse_392" data-name="Ellipse 392" cx="4.207" cy="4.207" r="4.207" transform="translate(169.366 963.021)" fill="url(#linear-gradient-7)"/>
  </g>
</svg>
