<svg xmlns="http://www.w3.org/2000/svg" width="711.188" height="443.243" viewBox="0 0 711.188 443.243">
  <g id="Group_624" data-name="Group 624" transform="translate(-1210.624)">
    <g id="Component_19_1" data-name="Component 19 – 1" transform="translate(1210.624)">
      <path id="Path_818" data-name="Path 818" d="M4665-102s-34.6,124.568,0,212.861,122.843,12.125,221.531,64.091,55.863,138.576,173.22,143.772,141.607-73.185,216.525-67.556,83.146,90.074,83.146,90.074V-102Z" transform="translate(-4649.624 102)" fill="rgba(255,255,255,0.2)"/>
      <path id="Path_819" data-name="Path 819" d="M4779.528-102s-45.3,94.821,9.328,137.976,123.252-1.666,209.2,34.644,65.957,96.936,134.578,110.594,82.612-54.3,139.908-55.963,89.275,49.3,89.275,49.3V-102Z" transform="translate(-4650.624 102)" fill="rgba(255,255,255,0.2)"/>
      <path id="Path_820" data-name="Path 820" d="M4895.251-102s-45.1,67.506,8.2,95.338,172.2,7.687,217.294,58.936,92.518-26.013,151.479-4.361,86.927,48.024,86.927,48.024V-102Z" transform="translate(-4650.624 102)" fill="rgba(255,255,255,0.2)"/>
    </g>
    <circle id="Ellipse_389" data-name="Ellipse 389" cx="4.5" cy="4.5" r="4.5" transform="translate(1787 68)" fill="#fff"/>
    <circle id="Ellipse_395" data-name="Ellipse 395" cx="5" cy="5" r="5" transform="translate(1839 22)" fill="#fff"/>
    <circle id="Ellipse_394" data-name="Ellipse 394" cx="5" cy="5" r="5" transform="translate(1708 22)" fill="#fff"/>
    <circle id="Ellipse_391" data-name="Ellipse 391" cx="6" cy="6" r="6" transform="translate(1844 198)" fill="#fff"/>
    <circle id="Ellipse_387" data-name="Ellipse 387" cx="5.5" cy="5.5" r="5.5" transform="translate(1292 137)" fill="#fff"/>
    <circle id="Ellipse_393" data-name="Ellipse 393" cx="2.5" cy="2.5" r="2.5" transform="translate(1875 218)" fill="#fff"/>
    <circle id="Ellipse_386" data-name="Ellipse 386" cx="1.5" cy="1.5" r="1.5" transform="translate(1894 338)" fill="#fff"/>
  </g>
</svg>
