<svg xmlns="http://www.w3.org/2000/svg" width="797.496" height="728.563" viewBox="0 0 797.496 728.563">
  <g id="Group_623" data-name="Group 623" transform="translate(0.093 -346.239)">
    <g id="Component_18_1" data-name="Component 18 – 1" transform="translate(0 346.239)">
      <path id="Union_32" data-name="Union 32" d="M-3440,102s67.8,126.213,130.972,167.489,96.546,18.959,234.651,55.964,70.538,188.515,155.885,237.308,110-14.726,202.678,77.951,71.02,189.851,71.02,189.851H-3440Z" transform="translate(3440 -102)" fill="rgba(255,255,255,0.2)"/>
    </g>
    <path id="Path_822" data-name="Path 822" d="M3440,230.308s43.664,105.1,96.326,139.507,155.911,4.317,263.827,66.623,31.318,144.671,102.461,185.343,150.486-23.695,200.247,62.494,47.73,170.665,47.73,170.665H3440Z" transform="translate(-3440 219.862)" fill="rgba(255,255,255,0.2)"/>
    <path id="Path_823" data-name="Path 823" d="M3440,247.63s-4.074,86.973,41.805,116.949,127.6,13.848,221.618,68.129,64.066,99.277,126.047,134.711c60.43,34.548,157.057-2.529,199.868,65.033,1.029,1.623,39.974,144.273,39.974,144.273H3440Z" transform="translate(-3440 298.077)" fill="rgba(255,255,255,0.2)"/>
    <circle id="Ellipse_397" data-name="Ellipse 397" cx="3" cy="3" r="3" transform="translate(123 648)" fill="#fff"/>
    <circle id="Ellipse_398" data-name="Ellipse 398" cx="4" cy="4" r="4" transform="translate(141 637)" fill="#fff"/>
    <circle id="Ellipse_399" data-name="Ellipse 399" cx="2.5" cy="2.5" r="2.5" transform="translate(274 773)" fill="#fff"/>
    <circle id="Ellipse_400" data-name="Ellipse 400" cx="6" cy="6" r="6" transform="translate(249 772)" fill="#fff"/>
    <circle id="Ellipse_401" data-name="Ellipse 401" cx="5" cy="5" r="5" transform="translate(402 648)" fill="#fff"/>
    <circle id="Ellipse_402" data-name="Ellipse 402" cx="2.5" cy="2.5" r="2.5" transform="translate(407 667)" fill="#fff"/>
    <circle id="Ellipse_403" data-name="Ellipse 403" cx="9" cy="9" r="9" transform="translate(684 887)" fill="#fff"/>
    <circle id="Ellipse_404" data-name="Ellipse 404" cx="3.5" cy="3.5" r="3.5" transform="translate(674 887)" fill="#fff"/>
  </g>
</svg>
