<svg xmlns="http://www.w3.org/2000/svg" xmlns:xlink="http://www.w3.org/1999/xlink" width="417.771" height="135.192" viewBox="0 0 417.771 135.192">
  <defs>
    <linearGradient id="linear-gradient" x1="0.5" x2="0.5" y2="1" gradientUnits="objectBoundingBox">
      <stop offset="0" stop-color="#9779ec"/>
      <stop offset="1" stop-color="#4c4cf8"/>
    </linearGradient>
    <clipPath id="clip-path">
      <path id="Path_342" data-name="Path 342" d="M7.627,0A7.627,7.627,0,1,1,0,7.627,7.627,7.627,0,0,1,7.627,0Z" fill="#f9fcff" stroke="#707070" stroke-width="1"/>
    </clipPath>
    <clipPath id="clip-path-2">
      <path id="Path_342-2" data-name="Path 342" d="M11.226,0A11.226,11.226,0,1,1,0,11.226,11.226,11.226,0,0,1,11.226,0Z" transform="translate(0)" fill="#f9fcff" stroke="#f95884" stroke-width="1"/>
    </clipPath>
  </defs>
  <g id="Group_558" data-name="Group 558" transform="translate(1 -470.789)">
    <path id="Path_771" data-name="Path 771" d="M5551,398.737s112,77.431,215.678,74.888,199.043-74.888,199.043-74.888l3.05-60.243H5551Z" transform="translate(-5552 132.295)" fill="url(#linear-gradient)"/>
    <path id="Path_648" data-name="Path 648" d="M4811.513,132.36h3.524l1.51-7.887,3.021,16.948,3.188-14.431,1.342,5.37h4.195" transform="translate(-4776 379.513)" fill="none" stroke="rgba(255,120,233,0.5)" stroke-width="1"/>
    <g id="shining" transform="translate(363 490.492)">
      <g id="Group_327" data-name="Group 327" transform="translate(3.234 10.069)">
        <g id="Group_326" data-name="Group 326">
          <path id="Path_661" data-name="Path 661" d="M92.776,308.293a3.259,3.259,0,0,1-1.55-.276.28.28,0,0,0-.266.493q.087.047.175.086a2.448,2.448,0,0,0-1.3,1.373,2.484,2.484,0,0,0-1.3-1.374,2.486,2.486,0,0,0,1.3-1.374c.054.132.1.224.1.228a.28.28,0,1,0,.5-.255,3,3,0,0,1-.3-1.446.3.3,0,0,0-.25-.338.308.308,0,0,0-.355.234,2.687,2.687,0,0,1-.972,2.3,3.089,3.089,0,0,1-1.676.348.309.309,0,0,0,0,.6,3.075,3.075,0,0,1,1.691.357,2.613,2.613,0,0,1,.951,2.229.308.308,0,0,0,.6.086,2.794,2.794,0,0,1,.93-2.292,2.906,2.906,0,0,1,1.695-.376A.309.309,0,0,0,92.776,308.293Z" transform="translate(-86.643 -305.405)" fill="rgba(255,228,120,0.7)"/>
        </g>
      </g>
      <g id="Group_329" data-name="Group 329" transform="translate(4.987 0.773)">
        <g id="Group_328" data-name="Group 328" transform="translate(0 0)">
          <path id="Path_662" data-name="Path 662" d="M147.427,63.118c-.512-.057-4.161.456-5.755-2.893A7.944,7.944,0,0,1,141,56.667a.346.346,0,0,0-.683.062v.727c-.126,2.5-1.263,4.624-3.65,5.372a9.172,9.172,0,0,1-2.8.294.347.347,0,0,0,0,.677,6.724,6.724,0,0,1,4.488,1.2.28.28,0,1,0,.358-.431,5.589,5.589,0,0,0-2.236-1.108,5.583,5.583,0,0,0,4.18-4.444,5.564,5.564,0,0,0,4.189,4.442,5.572,5.572,0,0,0-4.192,4.433,6.605,6.605,0,0,0-1.006-2.308.28.28,0,1,0-.458.323,5.394,5.394,0,0,1,.46.789,7.845,7.845,0,0,1,.663,3.515.346.346,0,1,0,.688-.078c-.038-.928.034-4.074,2.574-5.566a7.439,7.439,0,0,1,3.876-.769A.347.347,0,0,0,147.427,63.118Z" transform="translate(-133.602 -56.398)" fill="rgba(255,228,120,0.7)"/>
        </g>
      </g>
      <g id="Group_331" data-name="Group 331" transform="translate(0 0)">
        <g id="Group_330" data-name="Group 330">
          <path id="Path_663" data-name="Path 663" d="M6.134,38.566a2.345,2.345,0,0,1-2.352-1.122,3.162,3.162,0,0,1-.288-1.423.3.3,0,0,0-.251-.338.308.308,0,0,0-.355.235,2.686,2.686,0,0,1-.972,2.3,2.931,2.931,0,0,1-1.645.343.309.309,0,0,0-.031.607,3.067,3.067,0,0,1,1.691.358,2.4,2.4,0,0,1,.951,1.922,1.615,1.615,0,0,0,.014.394.308.308,0,0,0,.6-.037,3.423,3.423,0,0,1,.3-1.528.28.28,0,1,0-.5-.252q-.053.106-.1.219a2.484,2.484,0,0,0-1.3-1.375,2.486,2.486,0,0,0,1.3-1.374,2.458,2.458,0,0,0,1.3,1.375q-.092.04-.183.09a.28.28,0,0,0,.266.493,3.114,3.114,0,0,1,1.532-.277A.309.309,0,0,0,6.134,38.566Z" transform="translate(0 -35.678)" fill="rgba(255,228,120,0.7)"/>
        </g>
      </g>
    </g>
    <g id="Group_555" data-name="Group 555" transform="translate(343.555 535.693)">
      <g id="Mask_Group_2" data-name="Mask Group 2" clip-path="url(#clip-path)">
        <g id="Group_127" data-name="Group 127" transform="translate(-3.034 -3.069)">
          <line id="Line_20" data-name="Line 20" y2="15.963" transform="translate(11.288) rotate(45)" fill="none" stroke="#fff1b8" stroke-width="1"/>
          <line id="Line_21" data-name="Line 21" y2="15.963" transform="translate(12.291 1.003) rotate(45)" fill="none" stroke="#fff1b8" stroke-width="1"/>
          <line id="Line_22" data-name="Line 22" y2="15.963" transform="translate(13.294 2.007) rotate(45)" fill="none" stroke="#fff1b8" stroke-width="1"/>
          <line id="Line_23" data-name="Line 23" y2="15.963" transform="translate(14.298 3.01) rotate(45)" fill="none" stroke="#fff1b8" stroke-width="1"/>
          <line id="Line_24" data-name="Line 24" y2="15.963" transform="translate(15.301 4.013) rotate(45)" fill="none" stroke="#fff1b8" stroke-width="1"/>
          <line id="Line_25" data-name="Line 25" y2="15.963" transform="translate(16.304 5.017) rotate(45)" fill="none" stroke="#fff1b8" stroke-width="1"/>
          <line id="Line_26" data-name="Line 26" y2="15.963" transform="translate(17.308 6.02) rotate(45)" fill="none" stroke="#fff1b8" stroke-width="1"/>
          <line id="Line_27" data-name="Line 27" y2="15.963" transform="translate(18.311 7.023) rotate(45)" fill="none" stroke="#fff1b8" stroke-width="1"/>
          <line id="Line_28" data-name="Line 28" y2="15.963" transform="translate(19.314 8.027) rotate(45)" fill="none" stroke="#fff1b8" stroke-width="1"/>
          <line id="Line_29" data-name="Line 29" y2="15.963" transform="translate(20.318 9.03) rotate(45)" fill="none" stroke="#fff1b8" stroke-width="1"/>
          <line id="Line_30" data-name="Line 30" y2="15.963" transform="translate(21.321 10.033) rotate(45)" fill="none" stroke="#fff1b8" stroke-width="1"/>
        </g>
      </g>
    </g>
    <g id="Group_556" data-name="Group 556" transform="translate(333.337 530.693) rotate(83)">
      <g id="Mask_Group_2-2" data-name="Mask Group 2" transform="translate(0 0)" clip-path="url(#clip-path-2)">
        <g id="Group_127-2" data-name="Group 127" transform="translate(-4.465 -4.517)">
          <line id="Line_20-2" data-name="Line 20" y2="23.495" transform="translate(16.614 0) rotate(45)" fill="none" stroke="#f95884" stroke-width="1"/>
          <line id="Line_21-2" data-name="Line 21" y2="23.495" transform="translate(18.09 1.477) rotate(45)" fill="none" stroke="#f95884" stroke-width="1"/>
          <line id="Line_22-2" data-name="Line 22" y2="23.495" transform="translate(19.567 2.954) rotate(45)" fill="none" stroke="#f95884" stroke-width="1"/>
          <line id="Line_23-2" data-name="Line 23" y2="23.495" transform="translate(21.044 4.43) rotate(45)" fill="none" stroke="#f95884" stroke-width="1"/>
          <line id="Line_24-2" data-name="Line 24" y2="23.495" transform="translate(22.521 5.907) rotate(45)" fill="none" stroke="#f95884" stroke-width="1"/>
          <line id="Line_25-2" data-name="Line 25" y2="23.495" transform="translate(23.998 7.384) rotate(45)" fill="none" stroke="#f95884" stroke-width="1"/>
          <line id="Line_26-2" data-name="Line 26" y2="23.495" transform="translate(25.474 8.861) rotate(45)" fill="none" stroke="#f95884" stroke-width="1"/>
          <line id="Line_27-2" data-name="Line 27" y2="23.495" transform="translate(26.951 10.337) rotate(45)" fill="none" stroke="#f95884" stroke-width="1"/>
          <line id="Line_28-2" data-name="Line 28" y2="23.495" transform="translate(28.428 11.814) rotate(45)" fill="none" stroke="#f95884" stroke-width="1"/>
          <line id="Line_29-2" data-name="Line 29" y2="23.495" transform="translate(29.905 13.291) rotate(45)" fill="none" stroke="#f95884" stroke-width="1"/>
          <line id="Line_30-2" data-name="Line 30" y2="23.495" transform="translate(31.381 14.768) rotate(45)" fill="none" stroke="#f95884" stroke-width="1"/>
        </g>
      </g>
    </g>
    <g id="Group_334" data-name="Group 334" transform="translate(82.5 513.5)">
      <line id="Line_92" data-name="Line 92" x2="3.374" transform="translate(0 4.498)" fill="none" stroke="#aad7ff" stroke-width="1"/>
      <line id="Line_93" data-name="Line 93" x2="3.374" transform="translate(5.623 4.498)" fill="none" stroke="#aad7ff" stroke-width="1"/>
      <line id="Line_94" data-name="Line 94" y2="3.374" transform="translate(4.499)" fill="none" stroke="#aad7ff" stroke-width="1"/>
      <line id="Line_95" data-name="Line 95" y2="3.374" transform="translate(4.499 5.623)" fill="none" stroke="#aad7ff" stroke-width="1"/>
    </g>
    <g id="Group_557" data-name="Group 557" transform="translate(250.5 504.5)">
      <line id="Line_92-2" data-name="Line 92" x2="3.374" transform="translate(0 4.498)" fill="none" stroke="#aad7ff" stroke-width="1"/>
      <line id="Line_93-2" data-name="Line 93" x2="3.374" transform="translate(5.623 4.498)" fill="none" stroke="#aad7ff" stroke-width="1"/>
      <line id="Line_94-2" data-name="Line 94" y2="3.374" transform="translate(4.499)" fill="none" stroke="#aad7ff" stroke-width="1"/>
      <line id="Line_95-2" data-name="Line 95" y2="3.374" transform="translate(4.499 5.623)" fill="none" stroke="#aad7ff" stroke-width="1"/>
    </g>
  </g>
</svg>
