<svg xmlns="http://www.w3.org/2000/svg" xmlns:xlink="http://www.w3.org/1999/xlink" width="1922.791" height="905.834" viewBox="0 0 1922.791 905.834">
  <defs>
    <linearGradient id="linear-gradient" x1="0.5" x2="0.5" y2="1" gradientUnits="objectBoundingBox">
      <stop offset="0" stop-color="#9379ec"/>
      <stop offset="1" stop-color="#4c4cf8"/>
    </linearGradient>
  </defs>
  <g id="Group_524" data-name="Group 524" transform="translate(-0.634 -1.666)">
    <path id="Path_660" data-name="Path 660" d="M3498.9,708.992c.588,71.536,128.337,178.677,128.337,178.677s148.705,114.546,319.161,139.7,340.514-22.83,293.265-67.126,14.093-71.292,122.123-72.578c161.239-1.919,292.223,143.112,454.644,120.4,104.274-14.584,247.32-227.537,420.2-233.5s184.8-98.362,184.8-98.362V142.666H3498.9S3498.308,637.456,3498.9,708.992Z" transform="translate(-3498 -141)" fill="url(#linear-gradient)"/>
    <g id="Group_523" data-name="Group 523">
      <path id="Path_648" data-name="Path 648" d="M4811.513,143.164h8.351l3.579-18.691,7.158,40.166,7.556-34.2,3.181,12.726h9.942" transform="translate(-4364 607)" fill="none" stroke="rgba(255,120,233,0.5)" stroke-width="3"/>
      <path id="Path_647" data-name="Path 647" d="M4811.513,143.164h8.351l3.579-18.691,7.158,40.166,7.556-34.2,3.181,12.726h9.942" transform="translate(-3376 -37)" fill="none" stroke="rgba(255,120,233,0.5)" stroke-width="3"/>
      <g id="shining" transform="translate(1572 359.322)">
        <g id="Group_327" data-name="Group 327" transform="translate(11.335 70.963)">
          <g id="Group_326" data-name="Group 326">
            <path id="Path_661" data-name="Path 661" d="M108.138,315.526c-.535-.111-3.042.321-5.431-.967a.981.981,0,1,0-.931,1.728q.305.164.612.3a8.578,8.578,0,0,0-4.564,4.813,8.7,8.7,0,0,0-4.566-4.816,8.711,8.711,0,0,0,4.566-4.815c.188.464.359.786.366.8a.981.981,0,1,0,1.748-.892,10.518,10.518,0,0,1-1.05-5.067,1.067,1.067,0,0,0-.877-1.185,1.081,1.081,0,0,0-1.245.821c-.07.306.437,5.605-3.408,8.064-2.5,1.6-5.346,1.1-5.875,1.221a1.082,1.082,0,0,0,0,2.109c.523.118,3.421-.377,5.925,1.253,3.719,2.423,3.309,7.581,3.333,7.812a1.08,1.08,0,0,0,2.111.3c.129-.4-.414-5.518,3.258-8.032,2.419-1.658,5.417-1.258,5.939-1.317A1.081,1.081,0,0,0,108.138,315.526Z" transform="translate(-86.643 -305.405)" fill="rgba(255,228,120,0.7)"/>
          </g>
        </g>
        <g id="Group_329" data-name="Group 329" transform="translate(17.478 38.388)">
          <g id="Group_328" data-name="Group 328" transform="translate(0 0)">
            <path id="Path_662" data-name="Path 662" d="M182.053,79.949c-1.794-.2-14.582,1.6-20.17-10.137-2.938-6.172-2.184-11.767-2.345-12.469a1.212,1.212,0,0,0-2.393.218v2.546c-.443,8.753-4.427,16.2-12.792,18.828-4.831,1.515-9.024.861-9.807,1.032a1.215,1.215,0,0,0,.013,2.372c1.095.231,9.331-1.1,15.727,4.208a.981.981,0,1,0,1.254-1.51,19.587,19.587,0,0,0-7.835-3.882c7.924-2,12.788-7.652,14.65-15.576,1.846,7.875,6.67,13.581,14.679,15.567-7.929,1.984-12.86,7.636-14.69,15.537a23.148,23.148,0,0,0-3.526-8.089.981.981,0,1,0-1.6,1.132,18.9,18.9,0,0,1,1.612,2.763,27.494,27.494,0,0,1,2.322,12.32,1.213,1.213,0,1,0,2.411-.272c-.135-3.254.118-14.276,9.021-19.507,6.008-3.526,12.691-2.5,13.583-2.7A1.215,1.215,0,0,0,182.053,79.949Z" transform="translate(-133.602 -56.398)" fill="rgba(255,228,120,0.7)"/>
          </g>
        </g>
        <g id="Group_331" data-name="Group 331" transform="translate(0 35.678)">
          <g id="Group_330" data-name="Group 330" transform="translate(0 0)">
            <path id="Path_663" data-name="Path 663" d="M21.495,45.8c-.664-.138-5.9.79-8.243-3.931a11.081,11.081,0,0,1-1.009-4.986,1.067,1.067,0,0,0-.878-1.185,1.08,1.08,0,0,0-1.244.823c-.07.3.437,5.6-3.408,8.063C4.3,46.123,1.479,45.725.947,45.784a1.082,1.082,0,0,0-.109,2.128c.571.128,3.407-.386,5.925,1.253C9.447,50.913,10,54.124,10.1,55.9a5.659,5.659,0,0,0,.047,1.38,1.081,1.081,0,0,0,2.1-.13,12,12,0,0,1,1.041-5.356.981.981,0,1,0-1.753-.882q-.186.37-.346.766a8.705,8.705,0,0,0-4.568-4.82,8.712,8.712,0,0,0,4.566-4.815,8.615,8.615,0,0,0,4.563,4.819q-.321.142-.641.314a.981.981,0,0,0,.934,1.726,10.912,10.912,0,0,1,5.369-.97A1.082,1.082,0,0,0,21.495,45.8Z" transform="translate(0 -35.678)" fill="rgba(255,228,120,0.7)"/>
          </g>
        </g>
      </g>
      <g id="shining-2" data-name="shining" transform="translate(1200 616.322)">
        <g id="Group_327-2" data-name="Group 327" transform="translate(6.812 56.885)">
          <g id="Group_326-2" data-name="Group 326">
            <path id="Path_661-2" data-name="Path 661" d="M99.562,311.488a6.865,6.865,0,0,1-3.264-.581.59.59,0,1,0-.56,1.038q.184.1.368.18a5.155,5.155,0,0,0-2.743,2.893,5.231,5.231,0,0,0-2.744-2.894,5.235,5.235,0,0,0,2.744-2.894c.113.279.216.472.22.48a.59.59,0,1,0,1.051-.536A6.321,6.321,0,0,1,94,306.128a.641.641,0,0,0-.527-.712.65.65,0,0,0-.748.494c-.042.184.263,3.369-2.048,4.846a6.506,6.506,0,0,1-3.531.734.65.65,0,0,0,0,1.268,6.476,6.476,0,0,1,3.561.753c2.235,1.456,1.988,4.556,2,4.7a.649.649,0,0,0,1.269.181c.078-.242-.249-3.316,1.958-4.827a6.121,6.121,0,0,1,3.569-.791A.65.65,0,0,0,99.562,311.488Z" transform="translate(-86.643 -305.405)" fill="rgba(255,228,120,0.7)"/>
          </g>
        </g>
        <g id="Group_329-2" data-name="Group 329" transform="translate(10.505 37.307)">
          <g id="Group_328-2" data-name="Group 328" transform="translate(0 0)">
            <path id="Path_662-2" data-name="Path 662" d="M162.721,70.552c-1.078-.12-8.764.96-12.123-6.092a16.732,16.732,0,0,1-1.409-7.494.729.729,0,0,0-1.438.131v1.53c-.266,5.261-2.661,9.739-7.688,11.316a19.32,19.32,0,0,1-5.894.62.73.73,0,0,0,.008,1.426c.658.139,5.608-.663,9.452,2.529a.59.59,0,0,0,.754-.907,11.772,11.772,0,0,0-4.709-2.333c4.762-1.2,7.686-4.6,8.8-9.361,1.11,4.733,4.009,8.162,8.822,9.356-4.766,1.192-7.729,4.589-8.829,9.338a13.912,13.912,0,0,0-2.119-4.861.59.59,0,1,0-.964.68,11.361,11.361,0,0,1,.969,1.661,16.524,16.524,0,0,1,1.4,7.4.729.729,0,1,0,1.449-.163c-.081-1.956.071-8.58,5.422-11.724,3.611-2.119,7.627-1.5,8.163-1.621A.73.73,0,0,0,162.721,70.552Z" transform="translate(-133.602 -56.398)" fill="rgba(255,228,120,0.7)"/>
          </g>
        </g>
      </g>
      <g id="shining-3" data-name="shining" transform="translate(65 61.837)">
        <g id="Group_327-3" data-name="Group 327" transform="translate(7.694 59.63)">
          <g id="Group_326-3" data-name="Group 326">
            <path id="Path_661-3" data-name="Path 661" d="M101.234,312.275a7.754,7.754,0,0,1-3.687-.656.666.666,0,1,0-.632,1.173q.207.112.416.2a5.823,5.823,0,0,0-3.1,3.267,5.908,5.908,0,0,0-3.1-3.269,5.913,5.913,0,0,0,3.1-3.269c.128.315.244.533.248.542a.666.666,0,0,0,1.187-.606,7.139,7.139,0,0,1-.713-3.44.724.724,0,0,0-.6-.8.734.734,0,0,0-.845.557c-.048.208.3,3.805-2.313,5.474a7.348,7.348,0,0,1-3.988.829.735.735,0,0,0,0,1.432,7.314,7.314,0,0,1,4.022.851c2.525,1.645,2.246,5.146,2.263,5.3a.733.733,0,0,0,1.433.2c.088-.273-.281-3.746,2.212-5.453a6.913,6.913,0,0,1,4.032-.894A.734.734,0,0,0,101.234,312.275Z" transform="translate(-86.643 -305.405)" fill="rgba(255,228,120,0.7)"/>
          </g>
        </g>
        <g id="Group_329-3" data-name="Group 329" transform="translate(11.865 37.518)">
          <g id="Group_328-3" data-name="Group 328" transform="translate(0 0)">
            <path id="Path_662-3" data-name="Path 662" d="M166.492,72.385c-1.218-.135-9.9,1.084-13.692-6.881a18.9,18.9,0,0,1-1.592-8.464.823.823,0,0,0-1.625.148v1.728c-.3,5.942-3.005,11-8.683,12.781a21.821,21.821,0,0,1-6.657.7.825.825,0,0,0,.009,1.61c.743.157,6.334-.749,10.676,2.857a.666.666,0,1,0,.851-1.025A13.3,13.3,0,0,0,140.46,73.2c5.379-1.355,8.681-5.195,9.944-10.573,1.253,5.346,4.528,9.219,9.964,10.567-5.383,1.347-8.73,5.183-9.972,10.547A15.714,15.714,0,0,0,148,78.255a.666.666,0,1,0-1.089.768,12.835,12.835,0,0,1,1.094,1.876,18.664,18.664,0,0,1,1.576,8.363.824.824,0,1,0,1.637-.184c-.091-2.209.08-9.691,6.124-13.242,4.078-2.393,8.615-1.694,9.22-1.831A.825.825,0,0,0,166.492,72.385Z" transform="translate(-133.602 -56.398)" fill="rgba(255,228,120,0.7)"/>
          </g>
        </g>
        <g id="Group_331-2" data-name="Group 331" transform="translate(0 35.678)">
          <g id="Group_330-2" data-name="Group 330" transform="translate(0 0)">
            <path id="Path_663-2" data-name="Path 663" d="M14.591,42.548c-.451-.094-4.007.536-5.6-2.669a7.522,7.522,0,0,1-.685-3.385.724.724,0,0,0-.6-.8.733.733,0,0,0-.844.559c-.047.207.3,3.8-2.313,5.473a6.972,6.972,0,0,1-3.914.816.734.734,0,0,0-.074,1.444,7.3,7.3,0,0,1,4.022.851A5.708,5.708,0,0,1,6.854,49.4a3.841,3.841,0,0,0,.032.937.734.734,0,0,0,1.422-.088,8.143,8.143,0,0,1,.707-3.636.666.666,0,0,0-1.19-.6q-.126.251-.235.52a5.909,5.909,0,0,0-3.1-3.272A5.914,5.914,0,0,0,7.589,40a5.848,5.848,0,0,0,3.1,3.271q-.218.1-.435.213a.666.666,0,0,0,.634,1.172A7.407,7.407,0,0,1,14.53,44,.734.734,0,0,0,14.591,42.548Z" transform="translate(0 -35.678)" fill="rgba(255,228,120,0.7)"/>
          </g>
        </g>
      </g>
      <g id="Group_334" data-name="Group 334" transform="translate(-1911 -346.008)">
        <line id="Line_92" data-name="Line 92" x2="7.128" transform="translate(3263.5 877.004)" fill="none" stroke="#aad7ff" stroke-width="3"/>
        <line id="Line_93" data-name="Line 93" x2="7.128" transform="translate(3275.38 877.004)" fill="none" stroke="#aad7ff" stroke-width="3"/>
        <line id="Line_94" data-name="Line 94" y2="7.128" transform="translate(3273.004 867.5)" fill="none" stroke="#aad7ff" stroke-width="3"/>
        <line id="Line_95" data-name="Line 95" y2="7.128" transform="translate(3273.004 879.38)" fill="none" stroke="#aad7ff" stroke-width="3"/>
      </g>
      <g id="Group_335" data-name="Group 335" transform="translate(-2049 20.992)">
        <line id="Line_92-2" data-name="Line 92" x2="7.128" transform="translate(3263.5 877.004)" fill="none" stroke="#3232d8" stroke-width="3"/>
        <line id="Line_93-2" data-name="Line 93" x2="7.128" transform="translate(3275.38 877.004)" fill="none" stroke="#3232d8" stroke-width="3"/>
        <line id="Line_94-2" data-name="Line 94" y2="7.128" transform="translate(3273.004 867.5)" fill="none" stroke="#3232d8" stroke-width="3"/>
        <line id="Line_95-2" data-name="Line 95" y2="7.128" transform="translate(3273.004 879.38)" fill="none" stroke="#3232d8" stroke-width="3"/>
      </g>
      <g id="Group_338" data-name="Group 338" transform="translate(-1664 -230.008)">
        <line id="Line_92-3" data-name="Line 92" x2="7.128" transform="translate(3263.5 877.004)" fill="none" stroke="#aad7ff" stroke-width="3"/>
        <line id="Line_93-3" data-name="Line 93" x2="7.128" transform="translate(3275.38 877.004)" fill="none" stroke="#aad7ff" stroke-width="3"/>
        <line id="Line_94-3" data-name="Line 94" y2="7.128" transform="translate(3273.004 867.5)" fill="none" stroke="#aad7ff" stroke-width="3"/>
        <line id="Line_95-3" data-name="Line 95" y2="7.128" transform="translate(3273.004 879.38)" fill="none" stroke="#aad7ff" stroke-width="3"/>
      </g>
    </g>
  </g>
</svg>
