<svg xmlns="http://www.w3.org/2000/svg" xmlns:xlink="http://www.w3.org/1999/xlink" width="1283.281" height="1591.645" viewBox="0 0 1283.281 1591.645">
  <defs>
    <clipPath id="clip-path">
      <path id="Path_342" data-name="Path 342" d="M21.292,0A21.292,21.292,0,1,1,0,21.292,21.292,21.292,0,0,1,21.292,0Z" fill="#f9fcff" stroke="#5e88e9" stroke-width="1"/>
    </clipPath>
    <clipPath id="clip-path-2">
      <path id="Path_342-2" data-name="Path 342" d="M45.944,0A45.944,45.944,0,1,1,0,45.944,45.944,45.944,0,0,1,45.944,0Z" fill="#f9fcff" stroke="#5e88e9" stroke-width="1"/>
    </clipPath>
  </defs>
  <g id="Group_578" data-name="Group 578" transform="translate(-307 -3523)">
    <g id="shining" transform="translate(784 3487.322)">
      <g id="Group_327" data-name="Group 327" transform="translate(11.335 70.963)">
        <g id="Group_326" data-name="Group 326">
          <path id="Path_661" data-name="Path 661" d="M108.138,315.526c-.535-.111-3.042.321-5.431-.967a.981.981,0,1,0-.931,1.728q.305.164.612.3a8.578,8.578,0,0,0-4.564,4.813,8.7,8.7,0,0,0-4.566-4.816,8.711,8.711,0,0,0,4.566-4.815c.188.464.359.786.366.8a.981.981,0,1,0,1.748-.892,10.518,10.518,0,0,1-1.05-5.067,1.067,1.067,0,0,0-.877-1.185,1.081,1.081,0,0,0-1.245.821c-.07.306.437,5.605-3.408,8.064-2.5,1.6-5.346,1.1-5.875,1.221a1.082,1.082,0,0,0,0,2.109c.523.118,3.421-.377,5.925,1.253,3.719,2.423,3.309,7.581,3.333,7.812a1.08,1.08,0,0,0,2.111.3c.129-.4-.414-5.518,3.258-8.032,2.419-1.658,5.417-1.258,5.939-1.317A1.081,1.081,0,0,0,108.138,315.526Z" transform="translate(-86.643 -305.405)" fill="#5e88e9"/>
        </g>
      </g>
      <g id="Group_329" data-name="Group 329" transform="translate(17.478 38.388)">
        <g id="Group_328" data-name="Group 328" transform="translate(0 0)">
          <path id="Path_662" data-name="Path 662" d="M182.053,79.949c-1.794-.2-14.582,1.6-20.17-10.137-2.938-6.172-2.184-11.767-2.345-12.469a1.212,1.212,0,0,0-2.393.218v2.546c-.443,8.753-4.427,16.2-12.792,18.828-4.831,1.515-9.024.861-9.807,1.032a1.215,1.215,0,0,0,.013,2.372c1.095.231,9.331-1.1,15.727,4.208a.981.981,0,1,0,1.254-1.51,19.587,19.587,0,0,0-7.835-3.882c7.924-2,12.788-7.652,14.65-15.576,1.846,7.875,6.67,13.581,14.679,15.567-7.929,1.984-12.86,7.636-14.69,15.537a23.148,23.148,0,0,0-3.526-8.089.981.981,0,1,0-1.6,1.132,18.9,18.9,0,0,1,1.612,2.763,27.494,27.494,0,0,1,2.322,12.32,1.213,1.213,0,1,0,2.411-.272c-.135-3.254.118-14.276,9.021-19.507,6.008-3.526,12.691-2.5,13.583-2.7A1.215,1.215,0,0,0,182.053,79.949Z" transform="translate(-133.602 -56.398)" fill="#5e88e9"/>
        </g>
      </g>
      <g id="Group_331" data-name="Group 331" transform="translate(0 35.678)">
        <g id="Group_330" data-name="Group 330" transform="translate(0 0)">
          <path id="Path_663" data-name="Path 663" d="M21.495,45.8c-.664-.138-5.9.79-8.243-3.931a11.081,11.081,0,0,1-1.009-4.986,1.067,1.067,0,0,0-.878-1.185,1.08,1.08,0,0,0-1.244.823c-.07.3.437,5.6-3.408,8.063C4.3,46.123,1.479,45.725.947,45.784a1.082,1.082,0,0,0-.109,2.128c.571.128,3.407-.386,5.925,1.253C9.447,50.913,10,54.124,10.1,55.9a5.659,5.659,0,0,0,.047,1.38,1.081,1.081,0,0,0,2.1-.13,12,12,0,0,1,1.041-5.356.981.981,0,1,0-1.753-.882q-.186.37-.346.766a8.705,8.705,0,0,0-4.568-4.82,8.712,8.712,0,0,0,4.566-4.815,8.615,8.615,0,0,0,4.563,4.819q-.321.142-.641.314a.981.981,0,0,0,.934,1.726,10.912,10.912,0,0,1,5.369-.97A1.082,1.082,0,0,0,21.495,45.8Z" transform="translate(0 -35.678)" fill="#5e88e9"/>
        </g>
      </g>
    </g>
    <g id="Group_577" data-name="Group 577">
      <g id="Ellipse_373" data-name="Ellipse 373" transform="translate(1527 3576)" fill="#fff" stroke="#5757ff" stroke-width="2">
        <circle cx="4.5" cy="4.5" r="4.5" stroke="none"/>
        <circle cx="4.5" cy="4.5" r="3.5" fill="none"/>
      </g>
      <g id="Group_559" data-name="Group 559" transform="translate(991 1669.349)">
        <line id="Line_15" data-name="Line 15" y1="6.651" transform="translate(452.692 2108.5)" fill="none" stroke="#5757ff" stroke-width="2"/>
        <line id="Line_16" data-name="Line 16" x1="6.651" transform="translate(449.5 2111.692)" fill="none" stroke="#5757ff" stroke-width="2"/>
      </g>
      <g id="Path_772" data-name="Path 772" transform="translate(1178 3576)" fill="#fff">
        <path d="M 4.5 8 C 2.570090055465698 8 1 6.429910182952881 1 4.5 C 1 2.570090055465698 2.570090055465698 1 4.5 1 C 6.429910182952881 1 8 2.570090055465698 8 4.5 C 8 6.429910182952881 6.429910182952881 8 4.5 8 Z" stroke="none"/>
        <path d="M 4.5 2 C 3.121500015258789 2 2 3.121500015258789 2 4.5 C 2 5.878499984741211 3.121500015258789 7 4.5 7 C 5.878499984741211 7 7 5.878499984741211 7 4.5 C 7 3.121500015258789 5.878499984741211 2 4.5 2 M 4.5 0 C 6.98528003692627 0 9 2.01471996307373 9 4.5 C 9 6.98528003692627 6.98528003692627 9 4.5 9 C 2.01471996307373 9 0 6.98528003692627 0 4.5 C 0 2.01471996307373 2.01471996307373 0 4.5 0 Z" stroke="none" fill="#5757ff"/>
      </g>
      <g id="Group_560" data-name="Group 560" transform="translate(826 1463)">
        <line id="Line_15-2" data-name="Line 15" y1="9" transform="translate(453.82 2108.5)" fill="none" stroke="#5757ff" stroke-width="2"/>
        <line id="Line_16-2" data-name="Line 16" x1="9" transform="translate(449.5 2112.82)" fill="none" stroke="#5757ff" stroke-width="2"/>
      </g>
      <g id="Group_561" data-name="Group 561" transform="translate(2477.616 1943.992) rotate(45)">
        <line id="Line_15-3" data-name="Line 15" y1="7.641" transform="translate(453.168 2108.5)" fill="none" stroke="#5757ff" stroke-width="2"/>
        <line id="Line_16-3" data-name="Line 16" x1="7.641" transform="translate(449.5 2112.168)" fill="none" stroke="#5757ff" stroke-width="2"/>
      </g>
      <g id="Group_575" data-name="Group 575">
        <g id="Ellipse_374" data-name="Ellipse 374" transform="translate(465 4983)" fill="#fff" stroke="#5757ff" stroke-width="2">
          <circle cx="4.5" cy="4.5" r="4.5" stroke="none"/>
          <circle cx="4.5" cy="4.5" r="3.5" fill="none"/>
        </g>
        <g id="Group_562" data-name="Group 562" transform="translate(-42 2909.349)">
          <line id="Line_15-4" data-name="Line 15" y1="6.651" transform="translate(452.692 2108.5)" fill="none" stroke="#5757ff" stroke-width="2"/>
          <line id="Line_16-4" data-name="Line 16" x1="6.651" transform="translate(449.5 2111.692)" fill="none" stroke="#5757ff" stroke-width="2"/>
        </g>
        <g id="Group_563" data-name="Group 563" transform="translate(-114 2831)">
          <line id="Line_15-5" data-name="Line 15" y1="9" transform="translate(453.82 2108.5)" fill="none" stroke="#5757ff" stroke-width="2"/>
          <line id="Line_16-5" data-name="Line 16" x1="9" transform="translate(449.5 2112.82)" fill="none" stroke="#5757ff" stroke-width="2"/>
        </g>
        <g id="Group_564" data-name="Group 564" transform="translate(1652.616 3101.992) rotate(45)">
          <line id="Line_15-6" data-name="Line 15" y1="7.641" transform="translate(453.168 2108.5)" fill="none" stroke="#5757ff" stroke-width="2"/>
          <line id="Line_16-6" data-name="Line 16" x1="7.641" transform="translate(449.5 2112.168)" fill="none" stroke="#5757ff" stroke-width="2"/>
        </g>
      </g>
      <path id="Path_776" data-name="Path 776" d="M4811.513,143.164h8.351l3.579-18.691,7.158,40.166,7.556-34.2,3.181,12.726h9.942" transform="translate(-4425 3607)" fill="none" stroke="#5e88e9" stroke-width="3"/>
      <path id="Path_777" data-name="Path 777" d="M4811.513,143.164h8.351l3.579-18.691,7.158,40.166,7.556-34.2,3.181,12.726h9.942" transform="translate(-3261 4639)" fill="none" stroke="#5e88e9" stroke-width="3"/>
      <g id="shining-2" data-name="shining" transform="translate(1195 5021.322)">
        <g id="Group_327-2" data-name="Group 327" transform="translate(11.335 70.963)">
          <g id="Group_326-2" data-name="Group 326">
            <path id="Path_661-2" data-name="Path 661" d="M108.138,315.526c-.535-.111-3.042.321-5.431-.967a.981.981,0,1,0-.931,1.728q.305.164.612.3a8.578,8.578,0,0,0-4.564,4.813,8.7,8.7,0,0,0-4.566-4.816,8.711,8.711,0,0,0,4.566-4.815c.188.464.359.786.366.8a.981.981,0,1,0,1.748-.892,10.518,10.518,0,0,1-1.05-5.067,1.067,1.067,0,0,0-.877-1.185,1.081,1.081,0,0,0-1.245.821c-.07.306.437,5.605-3.408,8.064-2.5,1.6-5.346,1.1-5.875,1.221a1.082,1.082,0,0,0,0,2.109c.523.118,3.421-.377,5.925,1.253,3.719,2.423,3.309,7.581,3.333,7.812a1.08,1.08,0,0,0,2.111.3c.129-.4-.414-5.518,3.258-8.032,2.419-1.658,5.417-1.258,5.939-1.317A1.081,1.081,0,0,0,108.138,315.526Z" transform="translate(-86.643 -305.405)" fill="#5e88e9"/>
          </g>
        </g>
        <g id="Group_329-2" data-name="Group 329" transform="translate(17.478 38.388)">
          <g id="Group_328-2" data-name="Group 328" transform="translate(0 0)">
            <path id="Path_662-2" data-name="Path 662" d="M182.053,79.949c-1.794-.2-14.582,1.6-20.17-10.137-2.938-6.172-2.184-11.767-2.345-12.469a1.212,1.212,0,0,0-2.393.218v2.546c-.443,8.753-4.427,16.2-12.792,18.828-4.831,1.515-9.024.861-9.807,1.032a1.215,1.215,0,0,0,.013,2.372c1.095.231,9.331-1.1,15.727,4.208a.981.981,0,1,0,1.254-1.51,19.587,19.587,0,0,0-7.835-3.882c7.924-2,12.788-7.652,14.65-15.576,1.846,7.875,6.67,13.581,14.679,15.567-7.929,1.984-12.86,7.636-14.69,15.537a23.148,23.148,0,0,0-3.526-8.089.981.981,0,1,0-1.6,1.132,18.9,18.9,0,0,1,1.612,2.763,27.494,27.494,0,0,1,2.322,12.32,1.213,1.213,0,1,0,2.411-.272c-.135-3.254.118-14.276,9.021-19.507,6.008-3.526,12.691-2.5,13.583-2.7A1.215,1.215,0,0,0,182.053,79.949Z" transform="translate(-133.602 -56.398)" fill="#5e88e9"/>
          </g>
        </g>
        <g id="Group_331-2" data-name="Group 331" transform="translate(0 35.678)">
          <g id="Group_330-2" data-name="Group 330" transform="translate(0 0)">
            <path id="Path_663-2" data-name="Path 663" d="M21.495,45.8c-.664-.138-5.9.79-8.243-3.931a11.081,11.081,0,0,1-1.009-4.986,1.067,1.067,0,0,0-.878-1.185,1.08,1.08,0,0,0-1.244.823c-.07.3.437,5.6-3.408,8.063C4.3,46.123,1.479,45.725.947,45.784a1.082,1.082,0,0,0-.109,2.128c.571.128,3.407-.386,5.925,1.253C9.447,50.913,10,54.124,10.1,55.9a5.659,5.659,0,0,0,.047,1.38,1.081,1.081,0,0,0,2.1-.13,12,12,0,0,1,1.041-5.356.981.981,0,1,0-1.753-.882q-.186.37-.346.766a8.705,8.705,0,0,0-4.568-4.82,8.712,8.712,0,0,0,4.566-4.815,8.615,8.615,0,0,0,4.563,4.819q-.321.142-.641.314a.981.981,0,0,0,.934,1.726,10.912,10.912,0,0,1,5.369-.97A1.082,1.082,0,0,0,21.495,45.8Z" transform="translate(0 -35.678)" fill="#5e88e9"/>
          </g>
        </g>
      </g>
      <g id="Group_576" data-name="Group 576">
        <g id="Group_572" data-name="Group 572" transform="translate(-1276 1648.417)">
          <g id="Mask_Group_2" data-name="Mask Group 2" transform="translate(1583 2652)" clip-path="url(#clip-path)">
            <g id="Group_127" data-name="Group 127" transform="translate(-8.469 -8.568)">
              <line id="Line_20" data-name="Line 20" y2="44.564" transform="translate(31.512) rotate(45)" fill="none" stroke="#5e88e9" stroke-width="1"/>
              <line id="Line_21" data-name="Line 21" y2="44.564" transform="translate(34.313 2.801) rotate(45)" fill="none" stroke="#5e88e9" stroke-width="1"/>
              <line id="Line_22" data-name="Line 22" y2="44.564" transform="translate(37.114 5.602) rotate(45)" fill="none" stroke="#5e88e9" stroke-width="1"/>
              <line id="Line_23" data-name="Line 23" y2="44.564" transform="translate(39.915 8.403) rotate(45)" fill="none" stroke="#5e88e9" stroke-width="1"/>
              <line id="Line_24" data-name="Line 24" y2="44.564" transform="translate(42.716 11.204) rotate(45)" fill="none" stroke="#5e88e9" stroke-width="1"/>
              <line id="Line_25" data-name="Line 25" y2="44.564" transform="translate(45.517 14.005) rotate(45)" fill="none" stroke="#5e88e9" stroke-width="1"/>
              <line id="Line_26" data-name="Line 26" y2="44.564" transform="translate(48.318 16.806) rotate(45)" fill="none" stroke="#5e88e9" stroke-width="1"/>
              <line id="Line_27" data-name="Line 27" y2="44.564" transform="translate(51.119 19.607) rotate(45)" fill="none" stroke="#5e88e9" stroke-width="1"/>
              <line id="Line_28" data-name="Line 28" y2="44.564" transform="translate(53.92 22.408) rotate(45)" fill="none" stroke="#5e88e9" stroke-width="1"/>
              <line id="Line_29" data-name="Line 29" y2="44.564" transform="translate(56.721 25.209) rotate(45)" fill="none" stroke="#5e88e9" stroke-width="1"/>
              <line id="Line_30" data-name="Line 30" y2="44.564" transform="translate(59.522 28.01) rotate(45)" fill="none" stroke="#5e88e9" stroke-width="1"/>
            </g>
          </g>
        </g>
        <g id="Group_573" data-name="Group 573" transform="translate(2884.072 2440.636) rotate(83)">
          <g id="Mask_Group_2-2" data-name="Mask Group 2" transform="translate(1583 2652)" clip-path="url(#clip-path-2)">
            <g id="Group_127-2" data-name="Group 127" transform="translate(-18.275 -18.489)">
              <line id="Line_20-2" data-name="Line 20" y2="96.162" transform="translate(67.997) rotate(45)" fill="none" stroke="#5e88e9" stroke-width="1"/>
              <line id="Line_21-2" data-name="Line 21" y2="96.162" transform="translate(74.041 6.044) rotate(45)" fill="none" stroke="#5e88e9" stroke-width="1"/>
              <line id="Line_22-2" data-name="Line 22" y2="96.162" transform="translate(80.085 12.088) rotate(45)" fill="none" stroke="#5e88e9" stroke-width="1"/>
              <line id="Line_23-2" data-name="Line 23" y2="96.162" transform="translate(86.13 18.132) rotate(45)" fill="none" stroke="#5e88e9" stroke-width="1"/>
              <line id="Line_24-2" data-name="Line 24" y2="96.162" transform="translate(92.174 24.177) rotate(45)" fill="none" stroke="#5e88e9" stroke-width="1"/>
              <line id="Line_25-2" data-name="Line 25" y2="96.162" transform="translate(98.218 30.221) rotate(45)" fill="none" stroke="#5e88e9" stroke-width="1"/>
              <line id="Line_26-2" data-name="Line 26" y2="96.162" transform="translate(104.262 36.265) rotate(45)" fill="none" stroke="#5e88e9" stroke-width="1"/>
              <line id="Line_27-2" data-name="Line 27" y2="96.162" transform="translate(110.306 42.309) rotate(45)" fill="none" stroke="#5e88e9" stroke-width="1"/>
              <line id="Line_28-2" data-name="Line 28" y2="96.162" transform="translate(116.35 48.353) rotate(45)" fill="none" stroke="#5e88e9" stroke-width="1"/>
              <line id="Line_29-2" data-name="Line 29" y2="96.162" transform="translate(122.395 54.398) rotate(45)" fill="none" stroke="#5e88e9" stroke-width="1"/>
              <line id="Line_30-2" data-name="Line 30" y2="96.162" transform="translate(128.439 60.442) rotate(45)" fill="none" stroke="#5e88e9" stroke-width="1"/>
            </g>
          </g>
        </g>
      </g>
    </g>
  </g>
</svg>
