<svg xmlns="http://www.w3.org/2000/svg" width="491.056" height="470.907" viewBox="0 0 491.056 470.907">
  <g id="Group_548" data-name="Group 548" transform="translate(-1006 -3942.093)">
    <path id="Path_768" data-name="Path 768" d="M4567,4227.28s59.542,6.673,90.682-25.58a588.142,588.142,0,0,1,62.28-55.607h57.832s-40.038,65.617-77.851,125.673S4567,4322.925,4567,4322.925Z" transform="translate(-3561 -204)" fill="rgba(255,241,241,0.5)"/>
    <path id="Path_769" data-name="Path 769" d="M4567,4442s95.537,13.29,164.084-32.327,66.173-84.245,110.1-150.14,65.617-113.439,65.617-113.439h111.215s-67.285,94.254-57.832,125.673,95.645,0,95.645,0V4366.3s-108.99,50.047-227.99,71.178S4567,4616.533,4567,4616.533Z" transform="translate(-3561 -204)" fill="rgba(255,255,255,0.4)"/>
    <path id="Path_770" data-name="Path 770" d="M4812,4617s7.71-37.33,54.766-60.523,78.962-12.512,126.785-32.252,64.5-46.71,64.5-46.71v46.71s-6.951,16.4-46.71,32.252-59.778,19.346-87.86,34.477S4899.019,4617,4899.019,4617Z" transform="translate(-3561 -204)" fill="rgba(255,255,255,0.4)"/>
  </g>
</svg>
