<svg xmlns="http://www.w3.org/2000/svg" width="632.901" height="313.384" viewBox="0 0 632.901 313.384">
  <g id="undraw_road_to_knowledge_m8s0" transform="translate(0 0)">
    <path id="Path_826" data-name="Path 826" d="M557.031,650.074a14.776,14.776,0,1,1,0-29.553H776.516a12.848,12.848,0,0,0-11.273-6.7H328.967a21.478,21.478,0,0,0,0,42.956H765.243a12.848,12.848,0,0,0,11.273-6.7Z" transform="translate(-194.129 -343.392)" fill="#253267"/>
    <path id="Path_827" data-name="Path 827" d="M891.038,634.138H682.36a1.206,1.206,0,1,1,0-2.412H891.038a1.206,1.206,0,0,1,0,2.412Z" transform="translate(-308.36 -348.866)" fill="#ccc"/>
    <path id="Path_828" data-name="Path 828" d="M891.038,645.431H682.36a1.206,1.206,0,1,1,0-2.412H891.038a1.206,1.206,0,1,1,0,2.412Z" transform="translate(-308.36 -352.319)" fill="#ccc"/>
    <path id="Path_829" data-name="Path 829" d="M891.038,656.725H682.36a1.206,1.206,0,1,1,0-2.412H891.038a1.206,1.206,0,0,1,0,2.412Z" transform="translate(-308.36 -355.771)" fill="#ccc"/>
    <path id="Path_830" data-name="Path 830" d="M475.373,590.134a14.776,14.776,0,1,1,0-29.553H694.857a12.848,12.848,0,0,0-11.273-6.7H247.309a21.478,21.478,0,0,0,0,42.956H683.584a12.848,12.848,0,0,0,11.273-6.7Z" transform="translate(-169.164 -325.067)" fill="#00c5de"/>
    <path id="Path_831" data-name="Path 831" d="M809.38,574.2H600.7a1.206,1.206,0,1,1,0-2.412H809.38a1.206,1.206,0,1,1,0,2.412Z" transform="translate(-283.395 -330.541)" fill="#ccc"/>
    <path id="Path_832" data-name="Path 832" d="M809.38,585.491H600.7a1.206,1.206,0,0,1,0-2.412H809.38a1.206,1.206,0,1,1,0,2.413Z" transform="translate(-283.395 -333.993)" fill="#ccc"/>
    <path id="Path_833" data-name="Path 833" d="M809.38,596.784H600.7a1.206,1.206,0,0,1,0-2.412H809.38a1.206,1.206,0,1,1,0,2.412Z" transform="translate(-283.395 -337.446)" fill="#ccc"/>
    <path id="Path_834" data-name="Path 834" d="M393.715,528.194a14.776,14.776,0,0,1,0-29.553H613.2a12.848,12.848,0,0,0-11.273-6.7H165.651a21.478,21.478,0,0,0,0,42.956H601.927a12.848,12.848,0,0,0,11.273-6.7Z" transform="translate(-144.199 -306.13)" fill="#253267"/>
    <path id="Path_835" data-name="Path 835" d="M727.722,512.258H519.044a1.206,1.206,0,1,1,0-2.412H727.722a1.206,1.206,0,1,1,0,2.413Z" transform="translate(-258.43 -311.604)" fill="#ccc"/>
    <path id="Path_836" data-name="Path 836" d="M727.722,523.551H519.044a1.206,1.206,0,1,1,0-2.413H727.722a1.206,1.206,0,1,1,0,2.412Z" transform="translate(-258.43 -315.057)" fill="#ccc"/>
    <path id="Path_837" data-name="Path 837" d="M727.722,534.844H519.044a1.206,1.206,0,1,1,0-2.412H727.722a1.206,1.206,0,1,1,0,2.412Z" transform="translate(-258.43 -318.509)" fill="#ccc"/>
    <path id="Path_838" data-name="Path 838" d="M824.808,401.229a4.513,4.513,0,0,1-4.5-4.218l-.67-10.225a4.513,4.513,0,0,1,4.208-4.8l80.11-5.246a9.637,9.637,0,0,1,1.259,19.232l-80.11,5.246Q824.958,401.229,824.808,401.229Z" transform="translate(-350.697 -270.904)" fill="#a2d3ff"/>
    <path id="Path_839" data-name="Path 839" d="M847.6,402.137a4.519,4.519,0,0,1-4.508-4.345l-.571-15.273a4.513,4.513,0,0,1,4.341-4.678l65.877-2.462a4.513,4.513,0,0,1,4.678,4.341l.571,15.273a4.513,4.513,0,0,1-4.341,4.678l-65.877,2.462C847.715,402.135,847.658,402.137,847.6,402.137Z" transform="translate(-357.695 -270.493)" fill="#253267"/>
    <path id="Path_840" data-name="Path 840" d="M954.531,575.118H944.284a4.518,4.518,0,0,1-4.513-4.513V485.2a4.518,4.518,0,0,1,4.513-4.513h10.247a4.518,4.518,0,0,1,4.513,4.513v85.405a4.518,4.518,0,0,1-4.513,4.513Z" transform="translate(-387.427 -302.69)" fill="#253267"/>
    <path id="Path_841" data-name="Path 841" d="M890.7,513.49l-8.763-5.312a4.518,4.518,0,0,1-1.52-6.2l44.27-73.036a4.518,4.518,0,0,1,6.2-1.52l8.763,5.312a4.518,4.518,0,0,1,1.52,6.2L896.9,511.971a4.518,4.518,0,0,1-6.2,1.52Z" transform="translate(-369.082 -286.206)" fill="#253267"/>
    <circle id="Ellipse_408" data-name="Ellipse 408" cx="35.408" cy="35.408" r="35.408" transform="translate(516.133 18.052)" fill="#a2d3ff"/>
    <path id="Path_842" data-name="Path 842" d="M908.922,308.559a8.4,8.4,0,0,1-3.067-1.8,5.647,5.647,0,0,1-1.651-4.47,3.8,3.8,0,0,1,1.689-2.924,4.913,4.913,0,0,1,4.684-.055l-.065-13.823,1.388-.007.077,16.25-1.07-.673c-1.241-.779-3.012-1.327-4.264-.524a2.439,2.439,0,0,0-1.056,1.888,4.267,4.267,0,0,0,1.227,3.333c1.533,1.465,3.77,1.923,6.321,2.332l-.22,1.371a22.884,22.884,0,0,1-3.994-.9Z" transform="translate(-376.547 -243.01)" fill="#2f2e41"/>
    <rect id="Rectangle_307" data-name="Rectangle 307" width="1.388" height="7.479" transform="translate(519.471 43.157) rotate(-82.477)" fill="#2f2e41"/>
    <rect id="Rectangle_308" data-name="Rectangle 308" width="1.388" height="7.479" transform="translate(542.874 46.247) rotate(-82.477)" fill="#2f2e41"/>
    <path id="Path_843" data-name="Path 843" d="M952.308,472.8H892.6a5.908,5.908,0,0,1-5.9-5.9l12.5-95.854a5.894,5.894,0,0,1,5.9-5.857h21.189a31.959,31.959,0,0,1,31.923,31.923V466.9A5.908,5.908,0,0,1,952.308,472.8Z" transform="translate(-371.201 -267.38)" fill="#253267"/>
    <path id="Path_844" data-name="Path 844" d="M1020.921,440.984a4.52,4.52,0,0,1-.672,4.865l-6.7,7.754a4.512,4.512,0,0,1-6.365.464l-60.75-52.485A9.636,9.636,0,1,1,959.034,387l60.75,52.485a4.487,4.487,0,0,1,1.136,1.5Z" transform="translate(-388.444 -273.33)" fill="#a2d3ff"/>
    <path id="Path_845" data-name="Path 845" d="M1005.088,420.718a4.52,4.52,0,0,1-.672,4.865l-11.443,13.244a4.518,4.518,0,0,1-6.365.464l-49.884-43.1a4.512,4.512,0,0,1-.465-6.365L947.7,376.584a4.513,4.513,0,0,1,6.365-.464l49.884,43.1a4.491,4.491,0,0,1,1.136,1.5Z" transform="translate(-386.017 -270.385)" fill="#253267"/>
    <path id="Path_846" data-name="Path 846" d="M926.717,256.767c-4.733-3.917-11.061-.212-16.413-.738-5.121-.5-9.243-5.01-10.366-9.86-1.31-5.658,1.53-11.406,5.809-15.03,4.686-3.97,10.978-5.2,16.974-4.6,6.872.692,13.2,3.769,18.9,7.528A84.6,84.6,0,0,1,956.748,246.4c4.076,4.333,7.558,9.524,8.751,15.437,1.084,5.373.448,11.362-2.653,15.99a16.8,16.8,0,0,1-6.474,5.543c-2.708,1.394-5.6,2.409-8.224,3.977-3.96,2.37-7.761,7.2-6.413,12.129a6.8,6.8,0,0,0,1.6,2.879c.915.978,2.506-.367,1.589-1.348-1.611-1.721-1.593-4.058-.792-6.165a11.3,11.3,0,0,1,4.916-5.617c2.742-1.637,5.783-2.674,8.6-4.171a18.762,18.762,0,0,0,6.772-5.832c3.31-4.79,4.21-10.958,3.331-16.632-.951-6.14-4.221-11.674-8.275-16.286a81.982,81.982,0,0,0-15.283-13.014c-5.889-4.052-12.375-7.45-19.5-8.588-6.178-.986-12.839-.18-18.16,3.277-4.966,3.228-8.718,8.689-8.987,14.716a15.438,15.438,0,0,0,7.466,13.706,13.261,13.261,0,0,0,7.955,1.684c2.955-.246,5.9-1.208,8.88-1.013a6.207,6.207,0,0,1,3.685,1.408c1.034.856,2.215-.862,1.189-1.711Z" transform="translate(-374.514 -224.308)" fill="#2f2e41"/>
    <path id="Path_847" data-name="Path 847" d="M879.573,532.76q.019-.117.045-.235a4.482,4.482,0,0,1,1.965-2.84l8.611-5.554a4.518,4.518,0,0,1,6.238,1.346L923,566.661a4.514,4.514,0,0,1-1.346,6.239l-8.611,5.554a4.518,4.518,0,0,1-6.239-1.346l-26.564-41.184a4.48,4.48,0,0,1-.663-3.163Z" transform="translate(-369.004 -315.752)" fill="#253267"/>
  </g>
</svg>
