<svg id="adobe-xd-icon" xmlns="http://www.w3.org/2000/svg" width="35.987" height="35.088" viewBox="0 0 35.987 35.088">
  <path id="Path_972" data-name="Path 972" d="M10,10H42.989V42.089H10Z" transform="translate(-8.501 -8.501)" fill="#253267"/>
  <path id="Path_973" data-name="Path 973" d="M0,0V35.088H35.988V0ZM1.5,1.5H34.488V33.588H1.5Z" fill="#ff8797"/>
  <path id="Path_974" data-name="Path 974" d="M64.564,61.918a2.059,2.059,0,0,0-.87-.15c-1.889,0-3.149,1.454-3.149,3.869,0,2.759,1.29,3.869,2.969,3.869a2.829,2.829,0,0,0,1.035-.165V61.918Zm-6.718,3.839c0-3.494,2.249-6.223,5.938-6.223a6.649,6.649,0,0,1,.78.03v-3.9a.15.15,0,0,1,.15-.15h2.414c.12,0,.15.045.15.12V69.34a10.679,10.679,0,0,0,.075,1.469c0,.1,0,.12-.09.165a8.932,8.932,0,0,1-3.839.87C60.17,71.844,57.846,69.835,57.846,65.756Zm-5.113-2.429,4.2,8.142c.075.12.03.24-.09.24H54.232a.294.294,0,0,1-.315-.195q-1.44-2.969-2.939-6.163h-.03c-.9,2.009-1.889,4.2-2.849,6.178a.288.288,0,0,1-.27.165H45.34c-.15,0-.165-.12-.09-.21l4.109-7.9-3.974-7.857a.133.133,0,0,1,.1-.225h2.579c.15,0,.225.03.27.165.945,1.994,1.9,3.959,2.8,5.968h.03c.87-1.979,1.829-3.974,2.744-5.938.075-.12.12-.195.27-.195H56.6c.12,0,.165.09.09.225Z" transform="translate(-38.428 -47.178)" fill="#ff8797"/>
</svg>
