<svg id="bachelor-degree-icon" xmlns="http://www.w3.org/2000/svg" width="29.111" height="21.111" viewBox="0 0 29.111 21.111">
  <path id="Path_939" data-name="Path 939" d="M28.55,81.257,22.4,79.109a.424.424,0,0,0-.541.277.445.445,0,0,0,.267.559l6.087,2.128-2.865,1.445a1.275,1.275,0,0,0-.4-.186l-8.594-2.323A1.825,1.825,0,0,0,13.3,79.979a1.941,1.941,0,0,0-.579,1.385v.01a1.112,1.112,0,0,0,1.1,1.115H15.3a1.081,1.081,0,0,0,.965-.6l8.014,2.167-8.941,4.509a1.718,1.718,0,0,1-1.559,0L.894,82.073,13.986,77.5a1.732,1.732,0,0,1,1.139,0l5.112,1.787a.423.423,0,0,0,.541-.277.445.445,0,0,0-.267-.559L15.4,76.66a2.564,2.564,0,0,0-1.685,0L.562,81.257a.868.868,0,0,0-.1,1.58l6.749,3.4a42.834,42.834,0,0,1-1.554,5.537A1.781,1.781,0,0,0,6.2,93.753a21.2,21.2,0,0,0,6.608,3.593,5.55,5.55,0,0,0,3.5,0,21.2,21.2,0,0,0,6.608-3.593,1.781,1.781,0,0,0,.541-1.975A42.854,42.854,0,0,1,21.9,86.241l3.175-1.6V91.28a1.075,1.075,0,0,0-.972,1.085V93.65a.661.661,0,0,0,.207.482l-.158,2.477a.829.829,0,0,0,.81.9h1.079a.829.829,0,0,0,.81-.9l-.158-2.477a.661.661,0,0,0,.207-.482V92.364a1.075,1.075,0,0,0-.972-1.085V84.631a1.38,1.38,0,0,0-.057-.392l2.779-1.4a.868.868,0,0,0-.1-1.58Zm-13.252.35H13.814a.245.245,0,0,1-.244-.235v-.007a1.027,1.027,0,0,1,.31-.743.982.982,0,0,1,1.66.692A.247.247,0,0,1,15.3,81.607Zm6.873,9.037a19.871,19.871,0,0,1-6.7,3.422.441.441,0,0,0-.339.516.428.428,0,0,0,.5.351,20.7,20.7,0,0,0,6.829-3.406c.06.176.129.376.192.554a.883.883,0,0,1-.267.979,20.412,20.412,0,0,1-6.342,3.447,4.725,4.725,0,0,1-2.973,0A20.413,20.413,0,0,1,6.727,93.06a.882.882,0,0,1-.267-.979l.007-.021c.062-.176.131-.375.184-.533a20.73,20.73,0,0,0,6.829,3.406.427.427,0,0,0,.5-.351.441.441,0,0,0-.339-.516,19.875,19.875,0,0,1-6.7-3.422c.346-1.1.748-2.5,1.063-4l5.4,2.723a2.538,2.538,0,0,0,2.307,0l5.4-2.723C21.423,88.14,21.824,89.548,22.171,90.644ZM25,96.622l.148-2.32h.695l.148,2.32Zm1.041-4.258V93.42H24.954V92.364a.206.206,0,0,1,.2-.206h.691A.206.206,0,0,1,26.044,92.364Z" transform="translate(0 -76.517)" fill="#00c5de"/>
</svg>
