<svg xmlns="http://www.w3.org/2000/svg" width="98.813" height="87.441" viewBox="0 0 98.813 87.441">
  <g id="vector" transform="translate(0 -29.327)">
    <path id="Path_596" data-name="Path 596" d="M203.079,161.214,185.891,138a3.9,3.9,0,0,0-.745-.765l-12.47,15.607-6.774,11.81,8.84,10.389,4.465,8.286h9.441l6.009-7.2,8.215-9.375A4.516,4.516,0,0,0,203.079,161.214Z" transform="translate(-133.735 -86.985)" fill="#f9f7f8"/>
    <path id="Path_597" data-name="Path 597" d="M190.186,351.332v10.416l.4,11.525a1.165,1.165,0,0,0,1.165,1.125h6.459l.937-.568.418-4h5.794l.3,3.464,1.374,1.1h6.653a1.165,1.165,0,0,0,1.165-1.125l.4-11.525V351.332Z" transform="translate(-153.311 -259.571)" fill="#5e88e9"/>
    <path id="Path_598" data-name="Path 598" d="M153.611,163.713a4.516,4.516,0,0,1-.207-5.543l17.058-23.038-.131-.177a3.453,3.453,0,0,0-5.693,0L147.45,158.169a4.516,4.516,0,0,0,.207,5.543l8.215,9.375,6.146,7.2h5.954l-6.146-7.2Z" transform="translate(-118.175 -83.94)" fill="#e3d9ff"/>
    <path id="Path_599" data-name="Path 599" d="M193.785,351.332h-3.6v10.416l.4,11.525a1.165,1.165,0,0,0,1.165,1.125H195.3l-.156-4.51a4.211,4.211,0,0,1,4.209-4.357h15.7l.064-.062.129-3.72V351.332Z" transform="translate(-153.31 -259.571)" fill="#4d47f3"/>
    <path id="Path_600" data-name="Path 600" d="M214.982,337.849H197.009l-2.963.4-3.6,1.249-.349,4.648.261,6.158s2.992.174,3.05.261,3.092.631,3.092.631l.058.167h18.425a3.289,3.289,0,0,0,3.289-3.289v-6.937a3.289,3.289,0,0,0-3.289-3.289Z" transform="translate(-153.238 -248.702)" fill="#5e88e9"/>
    <path id="Path_601" data-name="Path 601" d="M180.639,348.077v-6.937a3.289,3.289,0,0,1,3.289-3.289h-7.421a3.289,3.289,0,0,0-3.289,3.289v6.937a3.289,3.289,0,0,0,3.289,3.289h7.421A3.289,3.289,0,0,1,180.639,348.077Z" transform="translate(-139.633 -248.703)" fill="#4d47f3"/>
    <path id="Path_602" data-name="Path 602" d="M232.829,154.105V138.037l-.423-.57a3.846,3.846,0,0,0-.92-.893l-5,6.824v10.583a5.956,5.956,0,1,0,6.344.124Z" transform="translate(-180.251 -86.453)" fill="#efedef"/>
    <g id="XMLID_120_" transform="translate(44.899 108.988)">
      <g id="Group_295" data-name="Group 295">
        <path id="Path_603" data-name="Path 603" d="M240.388,442.641v3.379h-8.822v-3.379a2.459,2.459,0,0,1,2.459-2.459h3.9a2.459,2.459,0,0,1,2.459,2.459Z" transform="translate(-231.566 -440.182)" fill="#4d47f3"/>
      </g>
    </g>
    <g id="Group_296" data-name="Group 296" transform="translate(14.543 30.781)">
      <circle id="Ellipse_354" data-name="Ellipse 354" cx="4.346" cy="4.346" r="4.346" transform="translate(61.036 34.537)" fill="#a88afc"/>
      <circle id="Ellipse_355" data-name="Ellipse 355" cx="4.346" cy="4.346" r="4.346" transform="translate(0 34.537)" fill="#a88afc"/>
      <path id="Path_604" data-name="Path 604" d="M240.683,44.75H236.01a1.625,1.625,0,0,1-1.625-1.625V38.452a1.625,1.625,0,0,1,1.625-1.625h4.673a1.625,1.625,0,0,1,1.625,1.625v4.673A1.625,1.625,0,0,1,240.683,44.75Z" transform="translate(-203.483 -36.827)" fill="#a88afc"/>
    </g>
    <path id="Path_605" data-name="Path 605" d="M467.568,44.75h-4.673a1.625,1.625,0,0,1-1.625-1.625V38.452a1.625,1.625,0,0,1,1.625-1.625h4.673a1.625,1.625,0,0,1,1.625,1.625v4.673A1.625,1.625,0,0,1,467.568,44.75Z" transform="translate(-371.834 -6.046)" fill="#aad7ff"/>
    <path id="Path_606" data-name="Path 606" d="M9.125,44.75H13.8a1.625,1.625,0,0,0,1.625-1.625V38.452A1.625,1.625,0,0,0,13.8,36.827H9.125A1.625,1.625,0,0,0,7.5,38.452v4.673A1.625,1.625,0,0,0,9.125,44.75Z" transform="translate(-6.046 -6.046)" fill="#aad7ff"/>
    <path id="Path_607" data-name="Path 607" d="M238.456,135.262V143.3l6.052-8.174h0l-.131-.177a3.453,3.453,0,0,0-5.693,0Z" transform="translate(-192.222 -83.939)" fill="#e5e1e5"/>
    <path id="Path_608" data-name="Path 608" d="M231.568,446.507v-3.867a2.459,2.459,0,0,1,2.459-2.459h3.9a2.459,2.459,0,0,1,2.459,2.459v3.867" transform="translate(-186.669 -331.194)" fill="none" stroke="#000" stroke-linecap="round" stroke-linejoin="round" stroke-miterlimit="10" stroke-width="2"/>
    <g id="Group_297" data-name="Group 297" transform="translate(0 29.327)">
      <path id="Path_609" data-name="Path 609" d="M175.439,141.509a1.454,1.454,0,0,0-2.338,1.731l7.221,9.753a3.06,3.06,0,0,1-.132,3.72l-7.78,8.878H150.5l-7.78-8.878a3.06,3.06,0,0,1-.132-3.72l14.337-19.363v11.033a7.41,7.41,0,1,0,9.251.158V133.891l3.193,4.313a1.454,1.454,0,0,0,2.338-1.731l-6.238-8.425a4.907,4.907,0,0,0-8.031,0l-17.187,23.213a5.983,5.983,0,0,0,.283,7.367l6.488,7.4a4.749,4.749,0,0,0-2.746,4.3v6.938a4.752,4.752,0,0,0,3.331,4.529l.4,11.462a1.454,1.454,0,0,0,1.452,1.4h.051a1.454,1.454,0,0,0,1.4-1.5l-.386-11.146h22.053l-.386,11.146a1.454,1.454,0,0,0,1.4,1.5h.051a1.454,1.454,0,0,0,1.452-1.4l.4-11.528a4.751,4.751,0,0,0,3.135-4.462v-6.938a4.749,4.749,0,0,0-2.746-4.3l6.488-7.4a5.983,5.983,0,0,0,.283-7.367ZM161.458,128.87a2.08,2.08,0,0,1,1.678.909l.136.184v15.588a1.454,1.454,0,0,0,.655,1.215,4.5,4.5,0,1,1-4.791-.094,1.454,1.454,0,0,0,.7-1.245V129.709A2.059,2.059,0,0,1,161.458,128.87Zm14.27,48.4a1.837,1.837,0,0,1-1.835,1.835h-24.87a1.837,1.837,0,0,1-1.835-1.835v-6.938a1.837,1.837,0,0,1,1.835-1.835h24.87a1.837,1.837,0,0,1,1.835,1.835Z" transform="translate(-112.148 -107.225)"/>
      <path id="Path_610" data-name="Path 610" d="M74.788,144.889a29.049,29.049,0,0,1,3.74-13.115A1.454,1.454,0,1,0,76,130.338a31.961,31.961,0,0,0-4.122,14.536,5.8,5.8,0,1,0,2.911.014Zm-1.482,8.5A2.891,2.891,0,1,1,76.2,150.5,2.895,2.895,0,0,1,73.306,153.388Z" transform="translate(-54.417 -110.159)"/>
      <path id="Path_611" data-name="Path 611" d="M95.734,29.327H91.061a3.083,3.083,0,0,0-3.079,3.079v.882H54.822v-.882a3.083,3.083,0,0,0-3.079-3.079H47.07a3.083,3.083,0,0,0-3.079,3.079v.882H10.831v-.882a3.083,3.083,0,0,0-3.079-3.079H3.079A3.083,3.083,0,0,0,0,32.406v4.673a3.083,3.083,0,0,0,3.079,3.079H7.752a3.083,3.083,0,0,0,3.079-3.079V36.2H36.075A32.033,32.033,0,0,0,25.4,44.145a1.454,1.454,0,0,0,2.183,1.922A29.036,29.036,0,0,1,43.991,36.7v.376a3.083,3.083,0,0,0,3.079,3.079h4.673a3.083,3.083,0,0,0,3.079-3.079V36.7A29.127,29.127,0,0,1,78.444,64.057a5.8,5.8,0,1,0,2.909-.014A32.081,32.081,0,0,0,62.739,36.2H87.982v.882a3.083,3.083,0,0,0,3.079,3.079h4.673a3.083,3.083,0,0,0,3.079-3.079V32.406a3.083,3.083,0,0,0-3.079-3.079ZM7.923,37.079a.171.171,0,0,1-.171.171H3.079a.171.171,0,0,1-.171-.171V32.406a.171.171,0,0,1,.171-.171H7.752a.171.171,0,0,1,.171.171ZM82.816,69.664a2.891,2.891,0,1,1-2.891-2.892A2.895,2.895,0,0,1,82.816,69.664Zm-30.9-32.585a.171.171,0,0,1-.171.171H47.07a.171.171,0,0,1-.171-.171V32.406a.171.171,0,0,1,.171-.171h4.673a.171.171,0,0,1,.171.171Zm43.991,0a.171.171,0,0,1-.171.171H91.061a.171.171,0,0,1-.171-.171V32.406a.171.171,0,0,1,.171-.171h4.673a.171.171,0,0,1,.171.171Z" transform="translate(0 -29.327)"/>
    </g>
  </g>
</svg>
