<svg xmlns="http://www.w3.org/2000/svg" width="30.469" height="30.469" viewBox="0 0 30.469 30.469">
  <path id="facebook-square-brands" d="M27.2,32H3.265A3.265,3.265,0,0,0,0,35.265V59.2a3.265,3.265,0,0,0,3.265,3.265H12.6V52.11H8.314V47.234H12.6V43.518c0-4.227,2.516-6.562,6.371-6.562a25.958,25.958,0,0,1,3.776.329v4.149H20.619a2.438,2.438,0,0,0-2.749,2.634v3.166h4.678L21.8,52.11H17.87V62.469H27.2A3.265,3.265,0,0,0,30.469,59.2V35.265A3.265,3.265,0,0,0,27.2,32Z" transform="translate(0 -32)" fill="#fff"/>
</svg>
