<svg xmlns="http://www.w3.org/2000/svg" width="25.994" height="36" viewBox="0 0 25.994 36">
  <g id="firebase-icon" transform="translate(-124.92 -74.466)">
    <path id="Path_988" data-name="Path 988" d="M233.933,134.242l-3.6,3.353-3.344-6.744,1.73-3.878c.438-.778,1.152-.779,1.59,0Z" transform="translate(-91.944 -46.773)" fill="#ffa000"/>
    <path id="Path_989" data-name="Path 989" d="M138.39,178.125l-13.466,12.527,10.122-19.271Z" transform="translate(-0.004 -87.304)" fill="#f57f17"/>
    <path id="Path_990" data-name="Path 990" d="M145.931,150.676c.644-.619,1.309-.408,1.479.469l3.505,20.368L139.3,178.476a5.514,5.514,0,0,1-1.483.322,5.4,5.4,0,0,1-1.357-.325L124.92,171.68Z" transform="translate(0 -68.332)" fill="#ffca28"/>
    <path id="Path_991" data-name="Path 991" d="M135.046,84.077l-10.122,19.271,4.508-28.165c.166-.877.665-.962,1.111-.187Z" transform="translate(-0.004)" fill="#ffa000"/>
  </g>
</svg>
