<svg xmlns="http://www.w3.org/2000/svg" width="30.56" height="30.561" viewBox="0 0 30.56 30.561">
  <path id="github-square-brands" d="M27.286,32H3.274A3.275,3.275,0,0,0,0,35.274V59.286A3.275,3.275,0,0,0,3.274,62.56H27.286a3.275,3.275,0,0,0,3.274-3.274V35.274A3.275,3.275,0,0,0,27.286,32Zm-8.37,26.174c-.573.1-.784-.252-.784-.546,0-.368.014-2.251.014-3.772a2.658,2.658,0,0,0-.771-2.094c2.524-.28,5.184-.628,5.184-4.987a3.5,3.5,0,0,0-1.166-2.66,4.266,4.266,0,0,0-.116-3.07c-.948-.293-3.117,1.221-3.117,1.221a10.731,10.731,0,0,0-5.675,0s-2.169-1.514-3.117-1.221a4.233,4.233,0,0,0-.116,3.07,3.426,3.426,0,0,0-1.064,2.66c0,4.338,2.544,4.707,5.068,4.987a2.472,2.472,0,0,0-.723,1.521,2.393,2.393,0,0,1-3.295-.948A2.376,2.376,0,0,0,7.5,51.168c-1.105-.014-.075.7-.075.7.737.341,1.255,1.651,1.255,1.651.662,2.026,3.827,1.344,3.827,1.344,0,.948.014,2.49.014,2.77s-.2.648-.784.546a11.317,11.317,0,0,1-7.654-10.8A10.825,10.825,0,0,1,15.13,36.359,11.067,11.067,0,0,1,26.467,47.376,11.213,11.213,0,0,1,18.916,58.174Zm-6.692-4.168c-.13.027-.252-.027-.266-.116s.075-.191.2-.218.252.041.266.13S12.361,53.979,12.224,54.006Zm-.648-.061c0,.089-.1.164-.239.164s-.252-.061-.252-.164.1-.164.239-.164S11.576,53.842,11.576,53.945Zm-.935-.075c-.027.089-.164.13-.28.089s-.218-.13-.191-.218.164-.13.28-.1C10.587,53.679,10.676,53.781,10.642,53.87ZM9.8,53.5c-.061.075-.191.061-.293-.041s-.13-.218-.061-.28.191-.061.293.041S9.864,53.447,9.8,53.5Zm-.621-.621c-.061.041-.177,0-.252-.1s-.075-.218,0-.266.191-.014.252.089A.2.2,0,0,1,9.182,52.881Zm-.443-.662c-.061.061-.164.027-.239-.041-.075-.089-.089-.191-.027-.239s.164-.027.239.041C8.786,52.069,8.8,52.171,8.738,52.219Zm-.457-.5a.129.129,0,0,1-.191.027c-.089-.041-.13-.116-.1-.177a.161.161,0,0,1,.191-.027C8.268,51.585,8.309,51.66,8.281,51.714Z" transform="translate(0 -32)" fill="#fff"/>
</svg>
