<svg xmlns="http://www.w3.org/2000/svg" width="35.264" height="34.624" viewBox="0 0 35.264 34.624">
  <g id="github-icon" transform="translate(-17.397 -21.733)">
    <g id="Group_781" data-name="Group 781" transform="translate(17.397 21.733)">
      <g id="Group_780" data-name="Group 780">
        <g id="Group_779" data-name="Group 779">
          <path id="Path_992" data-name="Path 992" d="M35.027,21.733a17.767,17.767,0,0,0-5.569,34.592c.882.164,1.2-.384,1.2-.855,0-.422-.015-1.538-.024-3.019-4.9,1.072-5.939-2.38-5.939-2.38a4.683,4.683,0,0,0-1.957-2.6c-1.6-1.1.119-1.078.119-1.078a3.7,3.7,0,0,1,2.7,1.83A3.742,3.742,0,0,0,30.692,49.7a3.789,3.789,0,0,1,1.12-2.373c-3.915-.449-8.032-1.972-8.032-8.772A6.892,6.892,0,0,1,25.6,33.791a6.413,6.413,0,0,1,.172-4.7s1.481-.477,4.849,1.819a16.6,16.6,0,0,1,8.829,0c3.366-2.3,4.845-1.819,4.845-1.819a6.422,6.422,0,0,1,.176,4.7,6.879,6.879,0,0,1,1.812,4.765c0,6.818-4.121,8.318-8.049,8.758a4.253,4.253,0,0,1,1.2,3.286c0,2.374-.022,4.287-.022,4.869,0,.475.317,1.027,1.212.853a17.769,17.769,0,0,0-5.589-34.59Zm0,0" transform="translate(-17.397 -21.733)" fill="#253267"/>
        </g>
      </g>
    </g>
  </g>
</svg>
