<svg xmlns="http://www.w3.org/2000/svg" width="26.933" height="23.257" viewBox="0 0 26.933 23.257">
  <g id="high-school-exam-icon" transform="translate(-384.161 -2794.548)">
    <g id="Group_703" data-name="Group 703" transform="translate(384.161 2794.548)">
      <g id="Group_694" data-name="Group 694">
        <g id="Group_690" data-name="Group 690">
          <g id="certificate">
            <path id="Path_940" data-name="Path 940" d="M26.012,34.936H.921A.922.922,0,0,0,0,35.856V39.1a.4.4,0,0,0,.789,0v-3.24a.132.132,0,0,1,.132-.132H26.012a.132.132,0,0,1,.132.132V55.1a.132.132,0,0,1-.132.132H20.956v-.821h3.968a.394.394,0,0,0,.395-.395V49.88a.4.4,0,0,0-.789,0v3.737H20.956v-1.75l.038,0a1.207,1.207,0,0,0,1.017-.218,1.212,1.212,0,0,0,.218-1.018.6.6,0,0,1,.273-.673,1.022,1.022,0,0,0,0-1.787.6.6,0,0,1-.273-.673c.077-.883-.335-1.315-1.235-1.236a.6.6,0,0,1-.67-.273,1.019,1.019,0,0,0-1.786,0,.6.6,0,0,1-.67.273c-.883-.078-1.313.337-1.235,1.236a.6.6,0,0,1-.273.673,1.022,1.022,0,0,0,0,1.787.6.6,0,0,1,.273.673c-.083.945.369,1.311,1.272,1.233v1.751H2.4V37.335H24.53V47.776a.4.4,0,0,0,.789,0V36.94a.394.394,0,0,0-.395-.395H2.008a.394.394,0,0,0-.395.395V54.012a.394.394,0,0,0,.395.395h15.9v.821H.921A.132.132,0,0,1,.789,55.1v-14A.4.4,0,0,0,0,41.1v14a.922.922,0,0,0,.921.921H17.905V57.8a.4.4,0,0,0,.561.358l.965-.449.965.449a.4.4,0,0,0,.561-.358V56.016h5.056a.922.922,0,0,0,.921-.921V35.856a.922.922,0,0,0-.921-.921ZM17.8,51.084c-.395.035-.414.014-.38-.381a1.361,1.361,0,0,0-.554-1.348c-.32-.266-.32-.308,0-.574a1.361,1.361,0,0,0,.554-1.348c-.035-.395-.015-.416.38-.381a1.357,1.357,0,0,0,1.347-.556c.265-.32.306-.32.571,0a1.358,1.358,0,0,0,1.347.556c.395-.035.414-.014.38.381A1.361,1.361,0,0,0,22,48.78c.32.266.32.308,0,.574a1.361,1.361,0,0,0-.554,1.348c.035.395.015.416-.379.381a1.648,1.648,0,0,0-.776.056,1.574,1.574,0,0,0-.571.5,1.459,1.459,0,0,1-.285.292,1.46,1.46,0,0,1-.285-.292,1.574,1.574,0,0,0-.571-.5A1.727,1.727,0,0,0,17.8,51.084Zm1.8,5.834a.394.394,0,0,0-.333,0l-.57.265V52.326a.882.882,0,0,0,1.473,0v4.858Z" transform="translate(0 -34.936)" fill="#6573ff"/>
            <path id="Path_941" data-name="Path 941" d="M90.372,129.11h13.6a.4.4,0,0,0,0-.789h-13.6A.4.4,0,0,0,90.372,129.11Z" transform="translate(-85.256 -123.409)" fill="#6573ff"/>
            <path id="Path_942" data-name="Path 942" d="M107.467,174.334a.4.4,0,0,0-.395-.395h-16.7a.4.4,0,0,0,0,.789h16.7A.394.394,0,0,0,107.467,174.334Z" transform="translate(-85.257 -166.627)" fill="#6573ff"/>
            <path id="Path_943" data-name="Path 943" d="M100.256,219.951a.4.4,0,0,0-.395-.395H90.373a.4.4,0,0,0,0,.789h9.488A.4.4,0,0,0,100.256,219.951Z" transform="translate(-85.257 -209.844)" fill="#6573ff"/>
            <path id="Path_944" data-name="Path 944" d="M97.812,270.019h-.645c-.414,0-.642-.11-.726-.549-.077-.4-.655-.35-.761,0-.047.155-.284.6-.49.562-.11-.019-.157-.188-.2-.276a3.363,3.363,0,0,1-.185-.532c-.208-.764-.249-1.563-.379-2.342-.075-.452-.764-.324-.775.1a12.073,12.073,0,0,1-.745,3.994c-.18.475.582.681.761.21a11.155,11.155,0,0,0,.452-1.512,4,4,0,0,0,.226.549.939.939,0,0,0,1.2.522,1.347,1.347,0,0,0,.482-.352,1.744,1.744,0,0,0,1.447.41l2.343-.005a.4.4,0,0,0,0-.789Z" transform="translate(-87.994 -254.413)" fill="#6573ff"/>
            <path id="Path_945" data-name="Path 945" d="M341.635,277.368a1.541,1.541,0,1,0-1.541-1.541A1.543,1.543,0,0,0,341.635,277.368Zm0-2.293a.752.752,0,1,1-.752.752A.753.753,0,0,1,341.635,275.075Z" transform="translate(-322.204 -261.695)" fill="#6573ff"/>
          </g>
        </g>
      </g>
    </g>
  </g>
</svg>
