<svg xmlns="http://www.w3.org/2000/svg" width="65.018" height="64.203" viewBox="0 0 65.018 64.203">
  <g id="Group_405" data-name="Group 405" transform="translate(-835.14 -2777.798)">
    <g id="html" transform="translate(835.14 2777.797)">
      <path id="Path_674" data-name="Path 674" d="M75.272,7.5H53.458a1.805,1.805,0,0,0-1.805,1.805V50.544a1.805,1.805,0,0,0,1.805,1.805H83.578a1.805,1.805,0,0,0,1.805-1.805V16.853Zm0,0" transform="translate(-46.992 -6.823)" fill="#e7e7e7"/>
      <path id="Path_675" data-name="Path 675" d="M383.518,89.2v33.691a1.806,1.806,0,0,1-1.805,1.805H379.36a1.805,1.805,0,0,0,1.805-1.805V87.027Zm0,0" transform="translate(-345.127 -79.173)" fill="#cecece"/>
      <path id="Path_676" data-name="Path 676" d="M313.395,7.5v7.574a1.805,1.805,0,0,0,1.805,1.805h8.305Zm0,0" transform="translate(-285.115 -6.823)" fill="#acacac"/>
      <path id="Path_677" data-name="Path 677" d="M30.17,141.322H9.208A1.708,1.708,0,0,1,7.5,139.614v-8.085a1.708,1.708,0,0,1,1.708-1.708H30.17a1.708,1.708,0,0,1,1.708,1.708v8.085A1.708,1.708,0,0,1,30.17,141.322Zm0,0" transform="translate(-6.824 -118.105)" fill="#ff6b81"/>
      <path id="Path_678" data-name="Path 678" d="M242.068,131.525v8.085a1.708,1.708,0,0,1-1.708,1.708h-1.821a1.708,1.708,0,0,0,1.708-1.708v-8.085a1.708,1.708,0,0,0-1.708-1.709h1.821A1.708,1.708,0,0,1,242.068,131.525Zm0,0" transform="translate(-217.014 -118.101)" fill="#ff435f"/>
      <path id="Path_679" data-name="Path 679" d="M41.532,160.254H39.343v2.655c0,.2-.229.308-.466.308s-.466-.105-.466-.308v-5.821c0-.211.238-.3.466-.3s.466.088.466.3v2.427h2.189v-2.427c0-.211.238-.3.466-.3s.466.088.466.3v5.821c0,.2-.229.308-.466.308s-.466-.105-.466-.308Zm0,0" transform="translate(-34.944 -142.64)"/>
      <path id="Path_680" data-name="Path 680" d="M95.083,156.789c.211,0,.308.211.308.413,0,.229-.105.44-.308.44H93.728v5.267c0,.2-.237.308-.466.308s-.466-.105-.466-.308v-5.267H91.433c-.194,0-.308-.2-.308-.431,0-.2.1-.422.308-.422Zm0,0" transform="translate(-82.902 -142.64)"/>
      <path id="Path_681" data-name="Path 681" d="M148.946,160.869a.387.387,0,0,1-.343.211.343.343,0,0,1-.316-.211l-1.178-2.234v4.274c0,.2-.229.308-.466.308s-.466-.105-.466-.308v-5.654a.428.428,0,0,1,.466-.466c.334,0,.519.114.739.528l1.231,2.33,1.249-2.33c.22-.413.4-.528.73-.528a.424.424,0,0,1,.466.466v5.654c0,.2-.228.308-.466.308s-.466-.105-.466-.308v-4.221Zm0,0" transform="translate(-132.985 -142.64)"/>
      <path id="Path_682" data-name="Path 682" d="M213.53,163.217c-.2,0-.413-.105-.413-.308v-5.821c0-.211.238-.3.466-.3s.466.088.466.3v5.3h2.286c.185,0,.281.2.281.413s-.1.413-.281.413Zm0,0" transform="translate(-193.886 -142.641)"/>
      <path id="Path_683" data-name="Path 683" d="M38.85,9.534,36.781,7.62,31.526,2.758,29.464.85C29.158.568,28.726.009,28.291,0H6.466A2.485,2.485,0,0,0,3.984,2.482v8.556h-1.6A2.388,2.388,0,0,0,0,13.423v8.085a2.388,2.388,0,0,0,2.385,2.385h1.6V28.95a.677.677,0,0,0,1.354,0V23.893H23.346a2.387,2.387,0,0,0,2.385-2.385V13.423a2.388,2.388,0,0,0-2.385-2.385h-7.6a.677.677,0,0,0,0,1.354h7.6a1.032,1.032,0,0,1,1.031,1.031v8.085a1.032,1.032,0,0,1-1.031,1.031H2.385a1.032,1.032,0,0,1-1.031-1.031V13.423a1.032,1.032,0,0,1,1.031-1.031h9.236a.677.677,0,1,0,0-1.354H5.338V2.482A1.129,1.129,0,0,1,6.466,1.354H27.6v6.9a2.484,2.484,0,0,0,2.482,2.482h7.628V43.721a1.129,1.129,0,0,1-1.128,1.128H6.466a1.129,1.129,0,0,1-1.128-1.128V33.252a.677.677,0,0,0-1.354,0v10.47A2.485,2.485,0,0,0,6.466,46.2H36.585a2.485,2.485,0,0,0,2.482-2.482V10.03a.677.677,0,0,0-.217-.5Zm-8.765-.155a1.129,1.129,0,0,1-1.128-1.128V2.229l7.708,7.15Zm0,0" transform="translate(0)"/>
      <path id="Path_684" data-name="Path 684" d="M142.81,290.431a.677.677,0,0,0-.957,0l-4.242,4.242a.677.677,0,0,0,0,.957l4.242,4.242a.677.677,0,0,0,.957-.957l-3.763-3.763,3.763-3.764A.677.677,0,0,0,142.81,290.431Zm0,0" transform="translate(-125.013 -264.042)"/>
      <path id="Path_685" data-name="Path 685" d="M277.86,299.872a.677.677,0,0,0,.957,0l4.242-4.242a.677.677,0,0,0,0-.957l-4.242-4.242a.677.677,0,0,0-.957.957l3.764,3.764-3.764,3.763A.677.677,0,0,0,277.86,299.872Zm0,0" transform="translate(-252.606 -264.042)"/>
      <path id="Path_686" data-name="Path 686" d="M213.249,300.067a.677.677,0,0,0,.63-.43l3.333-8.484a.677.677,0,0,0-1.26-.5l-3.333,8.484a.678.678,0,0,0,.63.925Zm0,0" transform="translate(-193.39 -264.038)"/>
    </g>
    <g id="Layer_25" transform="translate(826.798 2789.899)">
      <g id="Group_404" data-name="Group 404" transform="translate(34.202 0)">
        <g id="Group_352" data-name="Group 352" transform="translate(9.022 16.188)">
          <g id="Group_351" data-name="Group 351">
            <path id="Path_687" data-name="Path 687" d="M107.377,79.538H79.517a.986.986,0,0,0-.986.986V90.741a.986.986,0,0,0,.986.986h24.231a1.13,1.13,0,0,0,1.077-.788l3.295-10.386a.78.78,0,0,0-.743-1.016Z" transform="translate(-78.531 -79.538)" fill="#70d6f9"/>
          </g>
        </g>
        <g id="Group_354" data-name="Group 354" transform="translate(0.509 2.468)">
          <g id="Group_353" data-name="Group 353">
            <path id="Path_688" data-name="Path 688" d="M46.2,38.035a.986.986,0,0,1-.986-.986V26.831a.986.986,0,0,1,.986-.986H69.9V14.637a2.519,2.519,0,0,0-2.512-2.512H46.96L36.7,22.383V54.744a2.519,2.519,0,0,0,2.512,2.512H67.387A2.519,2.519,0,0,0,69.9,54.744V38.035H46.2Z" transform="translate(-36.702 -12.125)" fill="#edf4fc"/>
          </g>
        </g>
        <g id="Group_356" data-name="Group 356" transform="translate(0.509 2.468)">
          <g id="Group_355" data-name="Group 355">
            <path id="Path_689" data-name="Path 689" d="M36.7,22.383h7.746a2.519,2.519,0,0,0,2.512-2.512V12.125Z" transform="translate(-36.702 -12.125)" fill="#70d6f9"/>
          </g>
        </g>
        <g id="Group_358" data-name="Group 358" transform="translate(0.418 2.239)">
          <g id="Group_357" data-name="Group 357">
            <path id="Path_690" data-name="Path 690" d="M39.7,12.74a2.084,2.084,0,0,0-1.671,1.637.038.038,0,0,1-.074,0A2.084,2.084,0,0,0,36.29,12.74a.037.037,0,0,1,0-.073,2.084,2.084,0,0,0,1.671-1.637.038.038,0,0,1,.074,0A2.084,2.084,0,0,0,39.7,12.668.037.037,0,0,1,39.7,12.74Z" transform="translate(-36.258 -11)" fill="#f5c84c"/>
          </g>
        </g>
        <g id="Group_360" data-name="Group 360" transform="translate(35.943 29.714)">
          <g id="Group_359" data-name="Group 359" transform="translate(0)">
            <path id="Path_691" data-name="Path 691" d="M213.227,147.221a1.462,1.462,0,0,0-1.172,1.148.026.026,0,0,1-.052,0,1.462,1.462,0,0,0-1.172-1.148.026.026,0,0,1,0-.051A1.462,1.462,0,0,0,212,146.023a.026.026,0,0,1,.052,0,1.462,1.462,0,0,0,1.172,1.148A.026.026,0,0,1,213.227,147.221Z" transform="translate(-210.809 -146.001)" fill="#fc657e"/>
          </g>
        </g>
        <g id="Group_362" data-name="Group 362" transform="translate(7.872 0)">
          <g id="Group_361" data-name="Group 361">
            <circle id="Ellipse_360" data-name="Ellipse 360" cx="0.687" cy="0.687" r="0.687" fill="#70d6f9"/>
          </g>
        </g>
        <g id="Group_364" data-name="Group 364" transform="translate(35.958 35.209)">
          <g id="Group_363" data-name="Group 363">
            <circle id="Ellipse_361" data-name="Ellipse 361" cx="0.687" cy="0.687" r="0.687" fill="#f5c84c"/>
          </g>
        </g>
        <g id="Group_366" data-name="Group 366" transform="translate(15.765 49.346)">
          <g id="Group_365" data-name="Group 365">
            <path id="Path_692" data-name="Path 692" d="M113.915,243.336h-.371v-.371a.5.5,0,1,0-1.007,0v.371h-.371a.5.5,0,0,0,0,1.007h.371v.371a.5.5,0,0,0,1.007,0v-.371h.371a.5.5,0,0,0,0-1.007Z" transform="translate(-111.663 -242.461)" fill="#87d147"/>
          </g>
        </g>
        <g id="Group_368" data-name="Group 368" transform="translate(22.807 49.71)">
          <g id="Group_367" data-name="Group 367">
            <circle id="Ellipse_362" data-name="Ellipse 362" cx="0.687" cy="0.687" r="0.687" fill="#70d6f9"/>
          </g>
        </g>
        <g id="Group_370" data-name="Group 370" transform="translate(8.513 15.679)">
          <g id="Group_369" data-name="Group 369">
            <path id="Path_693" data-name="Path 693" d="M101.758,90.246H77.526a1.5,1.5,0,0,1-1.5-1.5V78.533a1.5,1.5,0,0,1,1.5-1.5h27.859a1.289,1.289,0,0,1,1.228,1.678L103.319,89.1A1.633,1.633,0,0,1,101.758,90.246ZM77.526,78.056a.478.478,0,0,0-.478.478V88.75a.478.478,0,0,0,.478.478h24.231a.619.619,0,0,0,.592-.433l3.295-10.386a.271.271,0,0,0-.258-.353H77.526Z" transform="translate(-76.031 -77.038)"/>
          </g>
        </g>
        <g id="Group_372" data-name="Group 372" transform="translate(0 1.959)">
          <g id="Group_371" data-name="Group 371">
            <path id="Path_694" data-name="Path 694" d="M65.4,55.774H37.222a3.024,3.024,0,0,1-3.02-3.02V20.392a.51.51,0,0,1,.149-.36L44.609,9.774a.508.508,0,0,1,.36-.149H65.4a3.024,3.024,0,0,1,3.02,3.02V23.732a.509.509,0,0,1-1.018,0V12.645a2.005,2.005,0,0,0-2-2H45.179L35.22,20.6V52.753a2.005,2.005,0,0,0,2,2H65.4a2.005,2.005,0,0,0,2-2V36.142a.509.509,0,0,1,1.018,0V52.753A3.024,3.024,0,0,1,65.4,55.774Z" transform="translate(-34.202 -9.625)"/>
          </g>
        </g>
        <g id="Group_380" data-name="Group 380" transform="translate(14.208 18.895)">
          <g id="Group_379" data-name="Group 379">
            <g id="Group_374" data-name="Group 374" transform="translate(0 0.018)">
              <g id="Group_373" data-name="Group 373">
                <path id="Path_695" data-name="Path 695" d="M107.166,93.9a2.052,2.052,0,0,1,2.038,1.329.1.1,0,0,0,.1.065h.875a.1.1,0,0,0,.1-.13,3.216,3.216,0,0,0-5.861-.6,4,4,0,0,0,0,3.489,3.218,3.218,0,0,0,5.861-.606.1.1,0,0,0-.1-.13H109.3a.1.1,0,0,0-.1.065,2.051,2.051,0,0,1-2.038,1.329,1.966,1.966,0,0,1-1.819-1.12,3.1,3.1,0,0,1,0-2.565A1.96,1.96,0,0,1,107.166,93.9Z" transform="translate(-104.01 -92.93)"/>
              </g>
            </g>
            <g id="Group_376" data-name="Group 376" transform="translate(6.955)">
              <g id="Group_375" data-name="Group 375">
                <path id="Path_696" data-name="Path 696" d="M140.7,95.773c-.717-.231-1.415-.423-1.415-1.17,0-.6.415-.892,1-.892a1.1,1.1,0,0,1,1.158.883.1.1,0,0,0,.1.083h.893a.1.1,0,0,0,.1-.115,2.039,2.039,0,0,0-2.252-1.72c-1.232,0-2.1.669-2.1,1.788,0,1.243.856,1.592,1.939,1.947.761.24,1.46.47,1.46,1.234a.907.907,0,0,1-1.028.937,1.184,1.184,0,0,1-1.257-1.039.1.1,0,0,0-.1-.092h-.884a.1.1,0,0,0-.1.111,2.185,2.185,0,0,0,2.371,1.888,1.874,1.874,0,0,0,2.089-1.833C142.671,96.494,141.814,96.135,140.7,95.773Z" transform="translate(-138.184 -92.842)"/>
              </g>
            </g>
            <g id="Group_378" data-name="Group 378" transform="translate(12.132)">
              <g id="Group_377" data-name="Group 377">
                <path id="Path_697" data-name="Path 697" d="M164.716,94.6c0-.6.415-.892,1-.892a1.1,1.1,0,0,1,1.158.883.1.1,0,0,0,.1.083h.893a.1.1,0,0,0,.1-.115,2.039,2.039,0,0,0-2.252-1.72c-1.232,0-2.1.669-2.1,1.788,0,2.42,3.4,1.5,3.4,3.181a.907.907,0,0,1-1.028.937,1.181,1.181,0,0,1-1.257-1.039.1.1,0,0,0-.1-.092h-.884a.1.1,0,0,0-.1.111,2.185,2.185,0,0,0,2.371,1.888,1.874,1.874,0,0,0,2.089-1.833c0-2.493-3.39-1.558-3.39-3.181Z" transform="translate(-163.619 -92.842)"/>
              </g>
            </g>
          </g>
        </g>
        <g id="Group_401" data-name="Group 401" transform="translate(5.806 31.809)">
          <g id="Group_382" data-name="Group 382" transform="translate(4.728)">
            <g id="Group_381" data-name="Group 381">
              <path id="Path_698" data-name="Path 698" d="M103.324,157.311H86.467a.509.509,0,0,1,0-1.018h16.857a.509.509,0,0,1,0,1.018Z" transform="translate(-85.958 -156.293)"/>
            </g>
          </g>
          <g id="Group_384" data-name="Group 384">
            <g id="Group_383" data-name="Group 383">
              <path id="Path_699" data-name="Path 699" d="M66.242,157.311h-3a.509.509,0,1,1,0-1.018h3a.509.509,0,1,1,0,1.018Z" transform="translate(-62.729 -156.293)"/>
            </g>
          </g>
          <g id="Group_386" data-name="Group 386" transform="translate(11.332 2.702)">
            <g id="Group_385" data-name="Group 385">
              <path id="Path_700" data-name="Path 700" d="M129.17,170.585H118.918a.509.509,0,0,1,0-1.018H129.17a.509.509,0,0,1,0,1.018Z" transform="translate(-118.409 -169.567)"/>
            </g>
          </g>
          <g id="Group_388" data-name="Group 388" transform="translate(0 2.702)">
            <g id="Group_387" data-name="Group 387">
              <path id="Path_701" data-name="Path 701" d="M72.769,170.585H63.238a.509.509,0,1,1,0-1.018h9.531a.509.509,0,0,1,0,1.018Z" transform="translate(-62.729 -169.567)"/>
            </g>
          </g>
          <g id="Group_390" data-name="Group 390" transform="translate(18.003 5.403)">
            <g id="Group_389" data-name="Group 389">
              <path id="Path_702" data-name="Path 702" d="M155.276,183.86h-3.582a.509.509,0,0,1,0-1.018h3.582a.509.509,0,1,1,0,1.018Z" transform="translate(-151.185 -182.842)"/>
            </g>
          </g>
          <g id="Group_392" data-name="Group 392" transform="translate(0 5.403)">
            <g id="Group_391" data-name="Group 391">
              <path id="Path_703" data-name="Path 703" d="M79.493,183.86H63.238a.509.509,0,1,1,0-1.018H79.492a.509.509,0,0,1,0,1.018Z" transform="translate(-62.729 -182.842)"/>
            </g>
          </g>
          <g id="Group_394" data-name="Group 394" transform="translate(7.221 8.105)">
            <g id="Group_393" data-name="Group 393">
              <path id="Path_704" data-name="Path 704" d="M113.082,197.134H98.719a.509.509,0,0,1,0-1.018h14.363a.509.509,0,1,1,0,1.018Z" transform="translate(-98.21 -196.116)"/>
            </g>
          </g>
          <g id="Group_396" data-name="Group 396" transform="translate(0 8.105)">
            <g id="Group_395" data-name="Group 395">
              <path id="Path_705" data-name="Path 705" d="M68.655,197.134H63.239a.509.509,0,0,1,0-1.018h5.416a.509.509,0,1,1,0,1.018Z" transform="translate(-62.73 -196.116)"/>
            </g>
          </g>
          <g id="Group_398" data-name="Group 398" transform="translate(11.332 10.806)">
            <g id="Group_397" data-name="Group 397">
              <path id="Path_706" data-name="Path 706" d="M129.17,210.408H118.918a.509.509,0,0,1,0-1.018H129.17a.509.509,0,0,1,0,1.018Z" transform="translate(-118.409 -209.39)"/>
            </g>
          </g>
          <g id="Group_400" data-name="Group 400" transform="translate(0 10.806)">
            <g id="Group_399" data-name="Group 399">
              <path id="Path_707" data-name="Path 707" d="M72.769,210.408H63.238a.509.509,0,0,1,0-1.018h9.531a.509.509,0,0,1,0,1.018Z" transform="translate(-62.729 -209.39)"/>
            </g>
          </g>
        </g>
        <g id="Group_403" data-name="Group 403" transform="translate(0.162 2.012)">
          <g id="Group_402" data-name="Group 402">
            <path id="Path_708" data-name="Path 708" d="M43.093,21.11H35.509a.509.509,0,1,1,0-1.018h7.584a2.005,2.005,0,0,0,2-2V10.4a.509.509,0,1,1,1.018,0v7.693A3.024,3.024,0,0,1,43.093,21.11Z" transform="translate(-35 -9.888)"/>
          </g>
        </g>
      </g>
    </g>
  </g>
</svg>
