<svg xmlns="http://www.w3.org/2000/svg" width="32.25" height="43.001" viewBox="0 0 32.25 43.001">
  <g id="icons8-java" transform="translate(-9 -3.999)">
    <path id="Path_955" data-name="Path 955" d="M24.087,26.465A33.138,33.138,0,0,1,21.158,20.6C19.335,16.04,32.246,11.919,27.011,4,29.28,9.47,18.866,12.852,17.9,17.407,17.014,21.6,24.082,26.465,24.087,26.465Z" transform="translate(0.662)" fill="#ff8797"/>
    <path id="Path_956" data-name="Path 956" d="M23.879,17.737c-.206,2.7,2.4,4.146,2.471,6.122a4.339,4.339,0,0,1-1.556,2.949s2.933-.576,3.847-3.029c1.016-2.724-1.972-4.589-1.664-6.77.287-2.083,6.483-5.959,6.483-5.959S24.344,11.653,23.879,17.737Z" transform="translate(1.115 0.529)" fill="#ff8797"/>
    <g id="Group_710" data-name="Group 710" transform="translate(9 25.623)">
      <path id="Path_957" data-name="Path 957" d="M33.614,25.126c1.886-.424,3.475.777,3.475,2.161,0,3.119-4.323,6.066-4.323,6.066s6.692-.8,6.692-5.918C39.459,24.048,36.173,23.2,33.614,25.126Zm-3.177,2.515s2.087-1.487,2.642-2.045c-5.12,1.087-16.811,1.233-16.811.289,0-.87,3.77-1.761,3.77-1.761s-8.356-.12-8.356,2.345C11.683,29.039,22.621,29.222,30.437,27.641Z" transform="translate(-8.799 -24.114)" fill="#377fea"/>
      <path id="Path_958" data-name="Path 958" d="M28.935,29.645c-4.847,1.611-13.775,1.1-11.131-1.067-1.288,0-3.2,1.035-3.2,2.031,0,2,9.656,3.538,16.8.615Z" transform="translate(-8.579 -23.779)" fill="#377fea"/>
      <path id="Path_959" data-name="Path 959" d="M18.888,32.739c-1.759,0-2.9,1.133-2.9,1.959,0,2.57,10.492,2.829,14.649.22L28,33.164C24.892,34.529,17.091,34.717,18.888,32.739Z" transform="translate(-8.476 -23.467)" fill="#377fea"/>
      <path id="Path_960" data-name="Path 960" d="M38.327,36.77c0-1.006-1.134-1.48-1.54-1.707,2.4,5.776-23.991,5.328-23.991,1.918,0-.775,1.943-1.534,3.738-1.175l-1.526-.9C11.429,34.343,9,35.916,9,37.184,9,43.1,38.327,42.815,38.327,36.77Z" transform="translate(-9 -23.314)" fill="#377fea"/>
      <path id="Path_961" data-name="Path 961" d="M40.892,38.6c-4.457,4.4-15.758,6.006-27.123,3.286C25.134,46.731,40.839,44,40.892,38.6Z" transform="translate(-8.642 -23.027)" fill="#377fea"/>
    </g>
  </g>
</svg>
