<svg xmlns="http://www.w3.org/2000/svg" width="43.001" height="43" viewBox="0 0 43.001 43">
  <g id="icons8-python" transform="translate(-4.563 -5)">
    <path id="Path_953" data-name="Path 953" d="M26.611,5a24.317,24.317,0,0,0-4.454.415c-4.354.758-5.148,2.35-5.148,5.284v4.484H27.193v2.263H11.7c-2.983,0-5.593,1.405-6.421,4.774a18.951,18.951,0,0,0,0,10.326c.741,3.011,2.374,5.269,5.358,5.269h4.11V32.04a6.906,6.906,0,0,1,6.522-6.672h8.188c2.855,0,5.658-2.107,5.658-4.953V10.7a5.366,5.366,0,0,0-4.773-5.287A19.255,19.255,0,0,0,26.611,5Zm-5.64,4.526a1.7,1.7,0,1,1,0,3.395,1.7,1.7,0,1,1,0-3.395Z" transform="translate(0 0)" fill="#377fea"/>
    <path id="Path_954" data-name="Path 954" d="M24.067,46.816a24.317,24.317,0,0,0,4.454-.415c4.354-.758,5.148-2.35,5.148-5.284V36.631H23.484V34.368H38.979c2.983,0,5.593-1.405,6.421-4.774a18.951,18.951,0,0,0,0-10.326C44.657,16.257,43.024,14,40.04,14H35.93v5.776a6.906,6.906,0,0,1-6.522,6.672H21.22c-2.855,0-5.658,2.107-5.658,4.953v9.716A5.366,5.366,0,0,0,20.335,46.4,19.255,19.255,0,0,0,24.067,46.816Zm5.641-4.526a1.7,1.7,0,1,1,0-3.395,1.7,1.7,0,0,1,0,3.395Z" transform="translate(1.447 1.184)" fill="#ffc64d"/>
  </g>
</svg>
