<svg xmlns="http://www.w3.org/2000/svg" width="39.906" height="53.601" viewBox="0 0 39.906 53.601">
  <g id="Layer_29" transform="translate(-32.702)">
    <g id="Group_485" data-name="Group 485" transform="translate(32.702 0)">
      <g id="Group_454" data-name="Group 454" transform="translate(0.523 2.539)">
        <g id="Group_453" data-name="Group 453">
          <path id="Path_726" data-name="Path 726" d="M66.769,12.125H45.755L35.2,22.678V55.97a2.592,2.592,0,0,0,2.584,2.584H66.769a2.592,2.592,0,0,0,2.584-2.584V14.709a2.592,2.592,0,0,0-2.584-2.584Z" transform="translate(-35.202 -12.125)" fill="#3a70bf"/>
        </g>
      </g>
      <g id="Group_456" data-name="Group 456" transform="translate(0.523 2.539)">
        <g id="Group_455" data-name="Group 455">
          <path id="Path_727" data-name="Path 727" d="M35.2,22.678h7.969a2.592,2.592,0,0,0,2.584-2.584V12.125Z" transform="translate(-35.202 -12.125)" fill="#5290db"/>
        </g>
      </g>
      <g id="Group_458" data-name="Group 458" transform="translate(1.268 2.303)">
        <g id="Group_457" data-name="Group 457">
          <path id="Path_728" data-name="Path 728" d="M42.3,12.79a2.144,2.144,0,0,0-1.719,1.684.039.039,0,0,1-.076,0,2.144,2.144,0,0,0-1.719-1.684.038.038,0,0,1,0-.075,2.144,2.144,0,0,0,1.719-1.684.039.039,0,0,1,.076,0A2.144,2.144,0,0,0,42.3,12.716.038.038,0,0,1,42.3,12.79Z" transform="translate(-38.758 -11)" fill="#f5c84c"/>
        </g>
      </g>
      <g id="Group_460" data-name="Group 460" transform="translate(37.396 22.457)">
        <g id="Group_459" data-name="Group 459">
          <path id="Path_729" data-name="Path 729" d="M213.8,108.511a1.5,1.5,0,0,0-1.205,1.181.027.027,0,0,1-.053,0,1.5,1.5,0,0,0-1.205-1.181.026.026,0,0,1,0-.052,1.5,1.5,0,0,0,1.205-1.181.027.027,0,0,1,.053,0,1.5,1.5,0,0,0,1.205,1.181A.026.026,0,0,1,213.8,108.511Z" transform="translate(-211.309 -107.256)" fill="#fc657e"/>
        </g>
      </g>
      <g id="Group_462" data-name="Group 462" transform="translate(8.098 0)">
        <g id="Group_461" data-name="Group 461">
          <circle id="Ellipse_370" data-name="Ellipse 370" cx="0.707" cy="0.707" r="0.707" fill="#70d6f9"/>
        </g>
      </g>
      <g id="Group_464" data-name="Group 464" transform="translate(36.783 17.588)">
        <g id="Group_463" data-name="Group 463">
          <circle id="Ellipse_371" data-name="Ellipse 371" cx="0.707" cy="0.707" r="0.707" fill="#87d147"/>
        </g>
      </g>
      <g id="Group_466" data-name="Group 466" transform="translate(18.731 50.766)">
        <g id="Group_465" data-name="Group 465">
          <path id="Path_730" data-name="Path 730" d="M124.48,243.361H124.1v-.382a.518.518,0,0,0-1.036,0v.382h-.382a.518.518,0,0,0,0,1.036h.382v.382a.518.518,0,0,0,1.036,0V244.4h.382a.518.518,0,0,0,0-1.036Z" transform="translate(-122.163 -242.461)" fill="#70d6f9"/>
        </g>
      </g>
      <g id="Group_468" data-name="Group 468" transform="translate(13.832 50.721)">
        <g id="Group_467" data-name="Group 467">
          <circle id="Ellipse_372" data-name="Ellipse 372" cx="0.707" cy="0.707" r="0.707" fill="#f5c84c"/>
        </g>
      </g>
      <g id="Group_470" data-name="Group 470" transform="translate(0 2.015)">
        <g id="Group_469" data-name="Group 469">
          <path id="Path_731" data-name="Path 731" d="M64.793,57.1H35.809A3.111,3.111,0,0,1,32.7,53.994V20.7a.524.524,0,0,1,.153-.37L43.408,9.778a.523.523,0,0,1,.37-.153H64.793A3.111,3.111,0,0,1,67.9,12.732V53.994A3.111,3.111,0,0,1,64.793,57.1ZM33.749,20.918V53.994a2.063,2.063,0,0,0,2.06,2.06H64.793a2.063,2.063,0,0,0,2.06-2.06V12.732a2.063,2.063,0,0,0-2.06-2.06H44Z" transform="translate(-32.702 -9.625)"/>
        </g>
      </g>
      <g id="Group_472" data-name="Group 472" transform="translate(0.213 2.172)">
        <g id="Group_471" data-name="Group 471">
          <path id="Path_732" data-name="Path 732" d="M42,21.818H34.242a.523.523,0,0,1,0-1.047H42a2.063,2.063,0,0,0,2.06-2.06V10.9a.523.523,0,0,1,1.047,0V18.71A3.111,3.111,0,0,1,42,21.818Z" transform="translate(-33.719 -10.375)"/>
        </g>
      </g>
      <g id="Group_474" data-name="Group 474" transform="translate(3.781 21.625)">
        <g id="Group_473" data-name="Group 473">
          <path id="Path_733" data-name="Path 733" d="M77.386,103.283H51.769a1.01,1.01,0,0,0-1.01,1.01v9.7a1.01,1.01,0,0,0,1.01,1.01H77.386a1.01,1.01,0,0,0,1.01-1.01v-9.7A1.01,1.01,0,0,0,77.386,103.283Z" transform="translate(-50.759 -103.283)" fill="#70d6f9"/>
        </g>
      </g>
      <g id="Group_476" data-name="Group 476" transform="translate(3.257 21.102)">
        <g id="Group_475" data-name="Group 475">
          <path id="Path_734" data-name="Path 734" d="M75.41,113.547H49.793a1.535,1.535,0,0,1-1.533-1.534v-9.7a1.535,1.535,0,0,1,1.533-1.534H75.41a1.535,1.535,0,0,1,1.533,1.534v9.7A1.535,1.535,0,0,1,75.41,113.547ZM49.793,101.83a.487.487,0,0,0-.487.487v9.7a.487.487,0,0,0,.487.487H75.41a.487.487,0,0,0,.487-.487v-9.7a.487.487,0,0,0-.487-.487Z" transform="translate(-48.26 -100.783)"/>
        </g>
      </g>
      <g id="Group_478" data-name="Group 478" transform="translate(6.093 23.722)">
        <g id="Group_477" data-name="Group 477">
          <path id="Path_735" data-name="Path 735" d="M65.594,113.3h-.853a.1.1,0,0,0-.1.1v4.913a.775.775,0,0,1-.842.88c-.667,0-.927-.464-.927-1.133a.1.1,0,0,0-.1-.1H61.91a.1.1,0,0,0-.1.1,1.908,1.908,0,0,0,2.027,2.121,1.725,1.725,0,0,0,1.867-1.867V113.4a.1.1,0,0,0-.1-.1Z" transform="translate(-61.805 -113.299)"/>
        </g>
      </g>
      <g id="Group_480" data-name="Group 480" transform="translate(10.594 23.844)">
        <g id="Group_479" data-name="Group 479">
          <path id="Path_736" data-name="Path 736" d="M86.913,113.95a.1.1,0,0,0-.1-.068h-.966a.1.1,0,0,0-.1.068L83.3,120.438a.1.1,0,0,0,.1.142h.919a.1.1,0,0,0,.1-.069l.528-1.459h2.76l.528,1.459a.1.1,0,0,0,.1.069h.919a.1.1,0,0,0,.1-.142Zm.475,4.226h-2.12l1.06-2.926Z" transform="translate(-83.298 -113.882)"/>
        </g>
      </g>
      <g id="Group_482" data-name="Group 482" transform="translate(16.8 23.722)">
        <g id="Group_481" data-name="Group 481">
          <path id="Path_737" data-name="Path 737" d="M118.971,113.3h-.928a.105.105,0,0,0-.1.069L116,118.756l-1.918-5.388a.1.1,0,0,0-.1-.07h-.938a.1.1,0,0,0-.1.141l2.419,6.61a.1.1,0,0,0,.1.069h1.078a.1.1,0,0,0,.1-.069l2.429-6.61A.1.1,0,0,0,118.971,113.3Z" transform="translate(-112.941 -113.298)"/>
        </g>
      </g>
      <g id="Group_484" data-name="Group 484" transform="translate(23.082 23.844)">
        <g id="Group_483" data-name="Group 483">
          <path id="Path_738" data-name="Path 738" d="M149,120.438l-2.438-6.488a.1.1,0,0,0-.1-.068H145.5a.1.1,0,0,0-.1.068l-2.447,6.488a.1.1,0,0,0,.1.142h.919a.1.1,0,0,0,.1-.069l.528-1.459h2.76l.528,1.459a.1.1,0,0,0,.1.069h.919a.1.1,0,0,0,.1-.142Zm-1.963-2.262h-2.12l1.06-2.926Z" transform="translate(-142.943 -113.882)"/>
        </g>
      </g>
    </g>
  </g>
</svg>
