<svg xmlns="http://www.w3.org/2000/svg" width="35" height="45.6" viewBox="0 0 35 45.6">
  <g id="javascript" transform="translate(-0.5 0.001)">
    <path id="Path_664" data-name="Path 664" d="M39.719,51.764H9.944A1.945,1.945,0,0,1,8,49.82V9.445A1.945,1.945,0,0,1,9.944,7.5H33.53l8.134,7.734V49.82a1.945,1.945,0,0,1-1.945,1.945Zm0,0" transform="translate(-6.832 -6.833)" fill="#f4f4f4"/>
    <path id="Path_665" data-name="Path 665" d="M258.888,7.5h-3.5l8.134,7.734V49.819a1.945,1.945,0,0,1-1.944,1.945h3.5a1.945,1.945,0,0,0,1.945-1.945V15.234Zm0,0" transform="translate(-232.19 -6.833)" fill="#e8e8e8"/>
    <path id="Path_666" data-name="Path 666" d="M38.167,11.909,33.531,7.5H9.945A1.945,1.945,0,0,0,8,9.445v2.464Zm0,0" transform="translate(-6.833 -6.833)" fill="#f6d867"/>
    <path id="Path_667" data-name="Path 667" d="M265.988,11.909h7.19L268.541,7.5h-2.553Zm0,0" transform="translate(-241.843 -6.833)" fill="#e0c55e"/>
    <path id="Path_668" data-name="Path 668" d="M294.656,7.5v5.789a1.944,1.944,0,0,0,1.944,1.944h6.189Zm0,0" transform="translate(-267.958 -6.833)" fill="#dedcdd"/>
    <path id="Path_669" data-name="Path 669" d="M8,366.2v10.372a1.945,1.945,0,0,0,1.944,1.945H39.719a1.945,1.945,0,0,0,1.944-1.945V366.2Zm0,0" transform="translate(-6.832 -333.589)" fill="#f6d867"/>
    <path id="Path_670" data-name="Path 670" d="M326.827,376.576a1.945,1.945,0,0,1-1.944,1.944h3.5l.1,0a1.958,1.958,0,0,0,.386-.059c.062-.016.123-.035.183-.057s.118-.047.175-.074a1.951,1.951,0,0,0,.532-.378q.066-.066.126-.138c.02-.024.039-.049.058-.073a1.952,1.952,0,0,0,.268-.5,1.891,1.891,0,0,0,.057-.183,1.945,1.945,0,0,0,.061-.486V366.2h-3.5Zm0,0" transform="translate(-295.493 -333.589)" fill="#e0c55e"/>
    <path id="Path_671" data-name="Path 671" d="M34.832,11.858a.668.668,0,0,0,.668-.668V8.405a.641.641,0,0,0-.061-.283.672.672,0,0,0-.147-.205L27.158.183A.658.658,0,0,0,26.744,0C26.7,0,27.8,0,3.112,0A2.615,2.615,0,0,0,.5,2.612V42.987A2.616,2.616,0,0,0,3.112,45.6H32.887A2.615,2.615,0,0,0,35.5,42.987v-29.3a.668.668,0,0,0-1.336,0V31.946H8.606a.668.668,0,0,0,0,1.336H34.164v9.7a1.278,1.278,0,0,1-1.277,1.276H3.112a1.278,1.278,0,0,1-1.276-1.276v-9.7H6.113a.668.668,0,1,0,0-1.336H1.835V5.744H26.03v.713a2.616,2.616,0,0,0,2.612,2.613h5.521V11.19a.668.668,0,0,0,.668.668Zm-33-7.45v-1.8A1.278,1.278,0,0,1,3.112,1.336H26.03V4.408ZM28.642,7.733a1.278,1.278,0,0,1-1.276-1.277V2.224L33.16,7.733Zm0,0" transform="translate(0 0)"/>
    <path id="Path_672" data-name="Path 672" d="M141.111,408.128a2.242,2.242,0,0,0,2.263-2.22v-3.255a.531.531,0,1,0-1.062,0v3.255a1.2,1.2,0,0,1-2.35.324.529.529,0,1,0-1.015.3A2.243,2.243,0,0,0,141.111,408.128Zm0,0" transform="translate(-126.097 -366.308)"/>
    <path id="Path_673" data-name="Path 673" d="M203.978,406.2a3.753,3.753,0,0,1-1.658-.472.514.514,0,0,0-.482.908c1.983,1.1,4.5.581,4.5-1.193,0-1.314-1.288-1.584-2.394-1.784-.732-.133-1.227-.2-1.229-.683,0-.406.351-.832,1.238-.832a3.28,3.28,0,0,1,1.572.438.511.511,0,1,0,.484-.9c-2.355-1.256-4.353-.213-4.356,1.338,0,2.335,3.618,1.329,3.628,2.457.005.61-.883.723-1.3.723Zm0,0" transform="translate(-183.166 -365.396)"/>
  </g>
</svg>
