<svg xmlns="http://www.w3.org/2000/svg" width="30.469" height="30.469" viewBox="0 0 30.469 30.469">
  <path id="linkedin-brands" d="M28.292,32H2.17A2.186,2.186,0,0,0,0,34.2V60.272a2.186,2.186,0,0,0,2.17,2.2H28.292a2.192,2.192,0,0,0,2.176-2.2V34.2A2.192,2.192,0,0,0,28.292,32ZM9.209,58.116H4.693V43.575H9.215V58.116ZM6.951,41.589a2.618,2.618,0,1,1,2.618-2.618A2.62,2.62,0,0,1,6.951,41.589ZM26.136,58.116H21.621V51.043c0-1.687-.034-3.856-2.346-3.856-2.353,0-2.714,1.836-2.714,3.734v7.2H12.045V43.575h4.332v1.986h.061a4.756,4.756,0,0,1,4.278-2.346c4.57,0,5.42,3.013,5.42,6.93Z" transform="translate(0 -32)" fill="#fff"/>
</svg>
