<svg id="master-degree-icon" xmlns="http://www.w3.org/2000/svg" width="24.959" height="24.958" viewBox="0 0 24.959 24.958">
  <g id="Page-1">
    <g id="_001---Degree" data-name="001---Degree">
      <path id="Shape" d="M24.41,4.209,12.767.05a.854.854,0,0,0-.568,0L.558,4.209a.832.832,0,0,0,0,1.565L6.244,7.806V10.4c0,1.617,5.6,1.664,6.24,1.664s6.24-.047,6.24-1.664V7.806l1.248-.443V8.32a.832.832,0,0,0,.832.832h.832a.832.832,0,0,0,.832-.832V7.072a1.23,1.23,0,0,0-.136-.554l2.08-.744a.832.832,0,0,0,0-1.565ZM17.892,9.485c-1.584-.721-4.923-.749-5.408-.749s-3.823.027-5.408.749V5.861c.25-.32,2.211-.869,5.408-.869s5.158.548,5.408.869Zm-5.408,1.747c-3.078,0-5.011-.508-5.373-.832.361-.324,2.3-.832,5.373-.832s5.011.508,5.373.832C17.5,10.724,15.562,11.232,12.484,11.232Zm7.683-4.823-1.443.515v-1.1c0-1.617-5.6-1.664-6.24-1.664s-6.24.047-6.24,1.664v1.1L.837,4.992,12.49.833,20.8,3.8V5.9a1.25,1.25,0,0,0-.637.508ZM21.636,8.32H20.8V7.072a.416.416,0,1,1,.832,0Zm0-2.436V4.1l2.5.891Z" transform="translate(-0.005 -0.001)" fill="#ff8797"/>
      <path id="Shape-2" data-name="Shape" d="M23.711,31a.407.407,0,0,0-.074.007,69.651,69.651,0,0,1-11.157.825,69.651,69.651,0,0,1-11.157-.825A.469.469,0,0,0,1.248,31C.957,31,0,31.33,0,35.576s.957,4.576,1.248,4.576a.474.474,0,0,0,.074-.007,65.059,65.059,0,0,1,8.569-.781L9.08,41.31a.829.829,0,0,0,1.1,1.068l.318-.136.138.317a.827.827,0,0,0,.765.5h.01a.829.829,0,0,0,.762-.519l.723-1.73.72,1.723a.832.832,0,0,0,.765.526h.012a.826.826,0,0,0,.762-.5l.139-.319.313.134a.829.829,0,0,0,1.1-1.073l-.8-1.909a63.425,63.425,0,0,1,7.726.749.406.406,0,0,0,.072.005c.291,0,1.248-.33,1.248-4.576S24,31,23.711,31Zm-9.9,1.651a8.76,8.76,0,0,1,.3,1.946,2.886,2.886,0,0,0-2.9.269,11.238,11.238,0,0,0-.286-2.218q.756.016,1.55.016C12.934,32.664,13.375,32.659,13.81,32.651ZM12.9,39.32a2.08,2.08,0,1,1,2.08-2.08A2.08,2.08,0,0,1,12.9,39.32ZM1.248,32.04a11.667,11.667,0,0,1,.416,3.536,11.667,11.667,0,0,1-.416,3.536,11.667,11.667,0,0,1-.416-3.536A11.667,11.667,0,0,1,1.248,32.04Zm.84,7.142A11.617,11.617,0,0,0,2.5,35.576a11.61,11.61,0,0,0-.408-3.607,72.985,72.985,0,0,0,7.972.658,10.708,10.708,0,0,1,.339,2.949c0,.06,0,.118,0,.176a2.882,2.882,0,0,0-.134,2.725l-.018.044a72.446,72.446,0,0,0-8.157.662ZM11.4,42.231l-.3-.7a.416.416,0,0,0-.545-.216l-.7.309.975-2.339a2.909,2.909,0,0,0,1.469.8Zm3.838-.915a.416.416,0,0,0-.545.216l-.308.692-.892-2.135a2.912,2.912,0,0,0,1.47-.8l.973,2.329ZM23.628,39.3a67.367,67.367,0,0,0-8.07-.749l-.03-.072a2.9,2.9,0,0,0-.561-3.28,11.578,11.578,0,0,0-.3-2.563,69.436,69.436,0,0,0,8.957-.783,9.812,9.812,0,0,1,.5,3.723,9.856,9.856,0,0,1-.5,3.723Z" transform="translate(0 -18.105)" fill="#ff8797"/>
    </g>
  </g>
</svg>
