<svg id="meteor-icon" xmlns="http://www.w3.org/2000/svg" width="37.541" height="36.817" viewBox="0 0 37.541 36.817">
  <path id="Path_971" data-name="Path 971" d="M.439.438,32.589,34.5a1.5,1.5,0,0,0,1.933-.129,1.427,1.427,0,0,0,.193-1.8L.439.438Zm10.18,3.219L35.1,30.057a1.5,1.5,0,0,0,1.933-.129,1.427,1.427,0,0,0,.193-1.8Zm-7.152,6.89,24.483,26.4a1.5,1.5,0,0,0,1.933-.129,1.427,1.427,0,0,0,.193-1.8ZM19.224,6.426l17.1,18.444a1.048,1.048,0,0,0,1.35-.09,1,1,0,0,0,.135-1.26L19.224,6.426ZM5.823,18.531l17.1,18.444a1.048,1.048,0,0,0,1.35-.09,1,1,0,0,0,.135-1.259Zm22.191-8.113L35.767,18.8a.54.54,0,0,0,.668-.042.449.449,0,0,0,.067-.59ZM10.1,27.031l7.752,8.385a.541.541,0,0,0,.668-.042.449.449,0,0,0,.067-.59Z" transform="translate(-0.439 -0.438)" fill="#ff8797"/>
</svg>
