<svg xmlns="http://www.w3.org/2000/svg" width="87.46" height="87.46" viewBox="0 0 87.46 87.46">
  <g id="mobile-app" transform="translate(-16 -16)">
    <path id="Path_612" data-name="Path 612" d="M320,456h32.069v7.288H320Z" transform="translate(-248.609 -359.828)" fill="#a88afc"/>
    <path id="Path_779" data-name="Path 779" d="M16,0H28A16,16,0,0,1,44,16V69A16,16,0,0,1,28,85H16A16,16,0,0,1,0,69V16A16,16,0,0,1,16,0Z" transform="translate(42 17.46)" fill="#5e88e9"/>
    <path id="Path_613" data-name="Path 613" d="M160,144.849v1.458a2.915,2.915,0,0,0,2.915,2.915h37.9a2.915,2.915,0,0,0,2.915-2.915V90.915A2.915,2.915,0,0,0,200.815,88h-37.9A2.915,2.915,0,0,0,160,90.915Z" transform="translate(-117.762 -58.881)" fill="#aad7ff"/>
    <path id="Path_614" data-name="Path 614" d="M366.488,169.954v43.98h-10.2v-8.746l-1.959-1.959a11.66,11.66,0,0,1,0-16.49l1.959-1.959L347.9,176.4a4.638,4.638,0,1,1,6.56-6.56l1.822,1.822V160h.25a9.954,9.954,0,0,1,9.954,9.955Z" transform="translate(-270.316 -117.762)" fill="#e3d9ff"/>
    <path id="Path_615" data-name="Path 615" d="M24,120H72.1v49.561H24Z" transform="translate(-6.542 -85.05)" fill="#5e88e9"/>
    <g id="Group_298" data-name="Group 298" transform="translate(23.274 40.766)">
      <path id="Path_616" data-name="Path 616" d="M55.919,151.919H64.68v8.761H55.919Z" transform="translate(-55.919 -151.919)" fill="#4d47f3"/>
      <path id="Path_617" data-name="Path 617" d="M135.919,151.919h8.761v8.761h-8.761Z" transform="translate(-121.342 -151.919)" fill="#4d47f3"/>
      <path id="Path_618" data-name="Path 618" d="M216,151.919h8.761v8.761H216Z" transform="translate(-186.832 -151.919)" fill="#4d47f3"/>
      <path id="Path_619" data-name="Path 619" d="M216,231.919h8.761v8.761H216Z" transform="translate(-186.832 -217.342)" fill="#4d47f3"/>
      <path id="Path_620" data-name="Path 620" d="M135.919,231.919h8.761v8.761h-8.761Z" transform="translate(-121.342 -217.342)" fill="#4d47f3"/>
      <path id="Path_621" data-name="Path 621" d="M56,231.919h8.761v8.761H56Z" transform="translate(-55.985 -217.342)" fill="#4d47f3"/>
      <path id="Path_622" data-name="Path 622" d="M56,311.919h8.761v8.761H56Z" transform="translate(-55.985 -282.766)" fill="#4d47f3"/>
      <path id="Path_623" data-name="Path 623" d="M136,311.919h8.761v8.761H136Z" transform="translate(-121.409 -282.766)" fill="#4d47f3"/>
      <path id="Path_624" data-name="Path 624" d="M215.919,311.919h8.761v8.761h-8.761Z" transform="translate(-186.766 -282.766)" fill="#4d47f3"/>
    </g>
    <ellipse id="Ellipse_356" data-name="Ellipse 356" cx="1.5" cy="1" rx="1.5" ry="1" transform="translate(73 22.46)"/>
    <ellipse id="Ellipse_357" data-name="Ellipse 357" cx="2" cy="1" rx="2" ry="1" transform="translate(78 22.46)"/>
    <path id="Path_625" data-name="Path 625" d="M248,48h11.661v2.915H248Z" transform="translate(-189.728 -26.169)"/>
    <path id="Path_626" data-name="Path 626" d="M248,448h11.661v2.915H248Z" transform="translate(-189.728 -353.286)"/>
    <path id="Path_627" data-name="Path 627" d="M102,94.714H97.629V52.192a11.411,11.411,0,0,0-10.2-11.347V20.373A4.378,4.378,0,0,0,83.053,16h-37.9a4.378,4.378,0,0,0-4.373,4.373V33.492H17.458A1.458,1.458,0,0,0,16,34.95V84.51a1.458,1.458,0,0,0,1.458,1.458H40.78V99.087a4.378,4.378,0,0,0,4.373,4.373h37.9a4.378,4.378,0,0,0,4.373-4.373V97.629h13.119v5.831h2.915V96.172A1.458,1.458,0,0,0,102,94.714Zm-56.849-75.8h37.9a1.459,1.459,0,0,1,1.458,1.458v7.539a4.352,4.352,0,0,0-1.458-.251h-37.9a4.352,4.352,0,0,0-1.458.251V20.373A1.459,1.459,0,0,1,45.153,18.915Zm24.78,67.053V83.053H18.915V36.407H69.934V33.492H43.7V32.034a1.459,1.459,0,0,1,1.458-1.458h37.9a1.459,1.459,0,0,1,1.458,1.458V50.47a6.1,6.1,0,0,0-7.955,9.2l7.351,7.351-.927.927a13.134,13.134,0,0,0,0,18.553l1.437,1.437a1.459,1.459,0,0,1-1.364.948h-37.9A1.459,1.459,0,0,1,43.7,87.426V85.968ZM84.51,99.087a1.459,1.459,0,0,1-1.458,1.458h-37.9A1.459,1.459,0,0,1,43.7,99.087V91.548a4.352,4.352,0,0,0,1.458.251h37.9a4.351,4.351,0,0,0,1.458-.251Zm2.915-4.373V87.426A1.458,1.458,0,0,0,87,86.395l-1.958-1.958a10.215,10.215,0,0,1,0-14.43L87,68.049a1.458,1.458,0,0,0,0-2.062l-8.382-8.382a3.18,3.18,0,1,1,4.5-4.5l4.737,4.737a1.458,1.458,0,1,0,2.062-2.062L87.426,53.3V43.78a8.5,8.5,0,0,1,7.288,8.411V94.714Z"/>
    <path id="Path_628" data-name="Path 628" d="M288,152h10.2v2.915H288Z" transform="translate(-222.439 -111.22)"/>
    <path id="Path_629" data-name="Path 629" d="M360,152h2.915v2.915H360Z" transform="translate(-281.32 -111.22)"/>
    <path id="Path_630" data-name="Path 630" d="M288,184h8.746v2.915H288Z" transform="translate(-222.439 -137.389)"/>
    <path id="Path_631" data-name="Path 631" d="M288,216h5.831v2.915H288Z" transform="translate(-222.439 -163.558)"/>
    <path id="Path_632" data-name="Path 632" d="M288,248h7.288v2.915H288Z" transform="translate(-222.439 -189.728)"/>
    <path id="Path_633" data-name="Path 633" d="M288,280h11.661v2.915H288Z" transform="translate(-222.439 -215.897)"/>
    <path id="Path_634" data-name="Path 634" d="M288,312h8.746v2.915H288Z" transform="translate(-222.439 -242.066)"/>
    <path id="Path_635" data-name="Path 635" d="M288,344h5.831v2.915H288Z" transform="translate(-222.439 -268.236)"/>
    <path id="Path_636" data-name="Path 636" d="M336,344h2.915v2.915H336Z" transform="translate(-261.693 -268.236)"/>
    <path id="Path_637" data-name="Path 637" d="M49.377,155.6h8.761a1.458,1.458,0,0,0,1.458-1.458v-8.761a1.458,1.458,0,0,0-1.458-1.458H49.377a1.458,1.458,0,0,0-1.458,1.458v8.761a1.458,1.458,0,0,0,1.458,1.458Zm1.458-8.761H56.68v5.845H50.834Z" transform="translate(-26.103 -104.611)"/>
    <path id="Path_638" data-name="Path 638" d="M129.377,155.6h8.761a1.458,1.458,0,0,0,1.458-1.458v-8.761a1.458,1.458,0,0,0-1.458-1.458h-8.761a1.458,1.458,0,0,0-1.458,1.458v8.761a1.458,1.458,0,0,0,1.458,1.458Zm1.458-8.761h5.845v5.845h-5.845Z" transform="translate(-91.526 -104.611)"/>
    <path id="Path_639" data-name="Path 639" d="M218.218,143.919h-8.761A1.458,1.458,0,0,0,208,145.377v8.761a1.458,1.458,0,0,0,1.458,1.458h8.761a1.458,1.458,0,0,0,1.458-1.458v-8.761a1.458,1.458,0,0,0-1.458-1.458Zm-1.458,8.761h-5.845v-5.845h5.845Z" transform="translate(-157.016 -104.611)"/>
    <path id="Path_640" data-name="Path 640" d="M218.218,223.919h-8.761A1.458,1.458,0,0,0,208,225.377v8.761a1.458,1.458,0,0,0,1.458,1.458h8.761a1.458,1.458,0,0,0,1.458-1.458v-8.761a1.458,1.458,0,0,0-1.458-1.458Zm-1.458,8.761h-5.845v-5.845h5.845Z" transform="translate(-157.016 -170.034)"/>
    <path id="Path_641" data-name="Path 641" d="M129.377,235.6h8.761a1.458,1.458,0,0,0,1.458-1.458v-8.761a1.458,1.458,0,0,0-1.458-1.458h-8.761a1.458,1.458,0,0,0-1.458,1.458v8.761a1.458,1.458,0,0,0,1.458,1.458Zm1.458-8.761h5.845v5.845h-5.845Z" transform="translate(-91.526 -170.034)"/>
    <path id="Path_642" data-name="Path 642" d="M58.218,223.919H49.458A1.458,1.458,0,0,0,48,225.377v8.761a1.458,1.458,0,0,0,1.458,1.458h8.761a1.458,1.458,0,0,0,1.458-1.458v-8.761a1.458,1.458,0,0,0-1.458-1.458Zm-1.458,8.761H50.915v-5.845h5.845Z" transform="translate(-26.169 -170.034)"/>
    <path id="Path_643" data-name="Path 643" d="M58.218,303.919H49.458A1.458,1.458,0,0,0,48,305.377v8.761a1.458,1.458,0,0,0,1.458,1.458h8.761a1.458,1.458,0,0,0,1.458-1.458v-8.761a1.458,1.458,0,0,0-1.458-1.458Zm-1.458,8.761H50.915v-5.845h5.845Z" transform="translate(-26.169 -235.458)"/>
    <path id="Path_644" data-name="Path 644" d="M138.218,303.919h-8.761A1.458,1.458,0,0,0,128,305.377v8.761a1.458,1.458,0,0,0,1.458,1.458h8.761a1.458,1.458,0,0,0,1.458-1.458v-8.761a1.458,1.458,0,0,0-1.458-1.458Zm-1.458,8.761h-5.845v-5.845h5.845Z" transform="translate(-91.593 -235.458)"/>
    <path id="Path_645" data-name="Path 645" d="M218.137,303.919h-8.761a1.458,1.458,0,0,0-1.458,1.458v8.761a1.458,1.458,0,0,0,1.458,1.458h8.761a1.458,1.458,0,0,0,1.458-1.458v-8.761a1.458,1.458,0,0,0-1.458-1.458Zm-1.458,8.761h-5.845v-5.845h5.845Z" transform="translate(-156.95 -235.458)"/>
  </g>
</svg>
