<svg xmlns="http://www.w3.org/2000/svg" width="42.008" height="56.6" viewBox="0 0 42.008 56.6">
  <g id="Layer_28" transform="translate(-33)">
    <g id="Group_452" data-name="Group 452" transform="translate(33 0)">
      <g id="Group_409" data-name="Group 409" transform="translate(0.553 2.681)">
        <g id="Group_408" data-name="Group 408">
          <path id="Path_709" data-name="Path 709" d="M68.834,12.125H46.643L35.5,23.268V58.424a2.737,2.737,0,0,0,2.729,2.729H68.834a2.737,2.737,0,0,0,2.729-2.729V14.854A2.737,2.737,0,0,0,68.834,12.125Z" transform="translate(-35.5 -12.125)" fill="#edf4fc"/>
        </g>
      </g>
      <g id="Group_411" data-name="Group 411" transform="translate(7.612 15.816)">
        <g id="Group_410" data-name="Group 410">
          <path id="Path_710" data-name="Path 710" d="M79.224,71.535h-3.9a2.5,2.5,0,0,0-2.5,2.5v3.827H69.93a2.5,2.5,0,0,0-2.5,2.5V84.5a2.5,2.5,0,0,0,2.5,2.5h2.7a.662.662,0,0,0,.662-.662V84.25a2.872,2.872,0,0,1,2.872-2.872h4.511a1.054,1.054,0,0,0,1.054-1.054V74.036A2.5,2.5,0,0,0,79.224,71.535Z" transform="translate(-67.429 -71.535)" fill="#5290db"/>
        </g>
      </g>
      <g id="Group_413" data-name="Group 413" transform="translate(15.346 21.909)">
        <g id="Group_412" data-name="Group 412">
          <path id="Path_711" data-name="Path 711" d="M114.205,99.1h-2.7a.662.662,0,0,0-.662.662v2.091a2.872,2.872,0,0,1-2.872,2.872h-4.511a1.054,1.054,0,0,0-1.054,1.054v6.288a2.5,2.5,0,0,0,2.5,2.5h3.9a2.5,2.5,0,0,0,2.5-2.5v-3.827h2.889a2.5,2.5,0,0,0,2.5-2.5V101.6A2.5,2.5,0,0,0,114.205,99.1Z" transform="translate(-102.41 -99.095)" fill="#fc8c48"/>
        </g>
      </g>
      <g id="Group_415" data-name="Group 415" transform="translate(15.229 17.925)">
        <g id="Group_414" data-name="Group 414">
          <circle id="Ellipse_365" data-name="Ellipse 365" cx="1.055" cy="1.055" r="1.055" fill="#edf4fc"/>
        </g>
      </g>
      <g id="Group_417" data-name="Group 417" transform="translate(19.916 33.159)">
        <g id="Group_416" data-name="Group 416">
          <circle id="Ellipse_366" data-name="Ellipse 366" cx="1.055" cy="1.055" r="1.055" fill="#edf4fc"/>
        </g>
      </g>
      <g id="Group_419" data-name="Group 419" transform="translate(0.553 2.681)">
        <g id="Group_418" data-name="Group 418">
          <path id="Path_712" data-name="Path 712" d="M35.5,23.268h8.415a2.737,2.737,0,0,0,2.729-2.729V12.125Z" transform="translate(-35.5 -12.125)" fill="#818182"/>
        </g>
      </g>
      <g id="Group_421" data-name="Group 421" transform="translate(1.339 2.432)">
        <g id="Group_420" data-name="Group 420">
          <path id="Path_713" data-name="Path 713" d="M42.8,12.891a2.264,2.264,0,0,0-1.815,1.778.041.041,0,0,1-.08,0,2.264,2.264,0,0,0-1.815-1.778.04.04,0,0,1,0-.079A2.264,2.264,0,0,0,40.9,11.034a.041.041,0,0,1,.08,0A2.264,2.264,0,0,0,42.8,12.812.04.04,0,0,1,42.8,12.891Z" transform="translate(-39.055 -11)" fill="#fc657e"/>
        </g>
      </g>
      <g id="Group_423" data-name="Group 423" transform="translate(16.716 54.003)">
        <g id="Group_422" data-name="Group 422">
          <path id="Path_714" data-name="Path 714" d="M111.234,245.582a1.588,1.588,0,0,0-1.273,1.247.029.029,0,0,1-.056,0,1.588,1.588,0,0,0-1.273-1.247.028.028,0,0,1,0-.055,1.588,1.588,0,0,0,1.273-1.247.029.029,0,0,1,.056,0,1.588,1.588,0,0,0,1.273,1.247A.028.028,0,0,1,111.234,245.582Z" transform="translate(-108.608 -244.256)" fill="#f5c84c"/>
        </g>
      </g>
      <g id="Group_425" data-name="Group 425" transform="translate(8.551 0)">
        <g id="Group_424" data-name="Group 424">
          <circle id="Ellipse_367" data-name="Ellipse 367" cx="0.747" cy="0.747" r="0.747" fill="#f5c84c"/>
        </g>
      </g>
      <g id="Group_427" data-name="Group 427" transform="translate(38.841 26.089)">
        <g id="Group_426" data-name="Group 426">
          <circle id="Ellipse_368" data-name="Ellipse 368" cx="0.747" cy="0.747" r="0.747" fill="#87d147"/>
        </g>
      </g>
      <g id="Group_429" data-name="Group 429" transform="translate(39.014 19.558)">
        <g id="Group_428" data-name="Group 428">
          <path id="Path_715" data-name="Path 715" d="M211.908,89.411h-.4v-.4a.547.547,0,1,0-1.094,0v.4h-.4a.547.547,0,1,0,0,1.094h.4v.4a.547.547,0,1,0,1.094,0v-.4h.4a.547.547,0,1,0,0-1.094Z" transform="translate(-209.461 -88.461)" fill="#70d6f9"/>
        </g>
      </g>
      <g id="Group_431" data-name="Group 431" transform="translate(23.228 53.56)">
        <g id="Group_430" data-name="Group 430">
          <circle id="Ellipse_369" data-name="Ellipse 369" cx="0.747" cy="0.747" r="0.747" fill="#70d6f9"/>
        </g>
      </g>
      <g id="Group_433" data-name="Group 433" transform="translate(0 2.128)">
        <g id="Group_432" data-name="Group 432">
          <path id="Path_716" data-name="Path 716" d="M66.887,59.758H36.281A3.285,3.285,0,0,1,33,56.477V21.321a.553.553,0,0,1,.162-.391L44.305,9.787a.552.552,0,0,1,.391-.162h22.19a3.285,3.285,0,0,1,3.281,3.281v43.57A3.285,3.285,0,0,1,66.887,59.758ZM34.105,21.55V56.477a2.178,2.178,0,0,0,2.176,2.176H66.887a2.178,2.178,0,0,0,2.176-2.176V12.906a2.178,2.178,0,0,0-2.176-2.176H44.925Z" transform="translate(-33 -9.625)"/>
        </g>
      </g>
      <g id="Group_435" data-name="Group 435" transform="translate(0.262 2.414)">
        <g id="Group_434" data-name="Group 434">
          <path id="Path_717" data-name="Path 717" d="M42.892,22.88H34.74a.553.553,0,1,1,0-1.105h8.152A2.178,2.178,0,0,0,45.068,19.6V11.47a.553.553,0,0,1,1.105,0V19.6A3.285,3.285,0,0,1,42.892,22.88Z" transform="translate(-34.187 -10.917)"/>
        </g>
      </g>
      <g id="Group_437" data-name="Group 437" transform="translate(13.301 41.161)">
        <g id="Group_436" data-name="Group 436">
          <path id="Path_718" data-name="Path 718" d="M95.486,186.172H93.269a.111.111,0,0,0-.111.111v6.98a.111.111,0,0,0,.111.111h.9a.111.111,0,0,0,.111-.111v-2.7h1.206c1.516,0,2.5-.743,2.5-2.19C97.983,187.059,97.191,186.172,95.486,186.172Zm-1.206.974h1.127c.9,0,1.434.3,1.434,1.226,0,.893-.529,1.216-1.434,1.216H94.28Z" transform="translate(-93.158 -186.172)"/>
        </g>
      </g>
      <g id="Group_439" data-name="Group 439" transform="translate(18.419 41.161)">
        <g id="Group_438" data-name="Group 438">
          <path id="Path_719" data-name="Path 719" d="M121.915,186.172h-1.03a.11.11,0,0,0-.1.061l-1.6,3.181-1.614-3.181a.11.11,0,0,0-.1-.061h-1.05a.111.111,0,0,0-.1.162l2.284,4.312v2.616a.111.111,0,0,0,.111.111h.911a.111.111,0,0,0,.111-.111v-2.616l2.274-4.312A.111.111,0,0,0,121.915,186.172Z" transform="translate(-116.309 -186.172)"/>
        </g>
      </g>
      <g id="Group_441" data-name="Group 441" transform="translate(7.059 15.263)">
        <g id="Group_440" data-name="Group 440">
          <path id="Path_720" data-name="Path 720" d="M70.679,85.608h-2.7a3.057,3.057,0,0,1-3.054-3.054V78.416a3.057,3.057,0,0,1,3.054-3.054h2.337V72.089a3.057,3.057,0,0,1,3.054-3.054h3.9a3.057,3.057,0,0,1,3.054,3.054v6.288a1.609,1.609,0,0,1-1.607,1.607H74.213A2.322,2.322,0,0,0,71.894,82.3v2.091A1.217,1.217,0,0,1,70.679,85.608Zm-2.7-9.14a1.95,1.95,0,0,0-1.948,1.948v4.138A1.95,1.95,0,0,0,67.983,84.5h2.7a.11.11,0,0,0,.109-.109V82.3a3.428,3.428,0,0,1,3.425-3.424h4.511a.5.5,0,0,0,.5-.5V72.089a1.95,1.95,0,0,0-1.948-1.948h-3.9a1.95,1.95,0,0,0-1.948,1.948v3.827a.553.553,0,0,1-.553.553H67.983Z" transform="translate(-64.929 -69.035)"/>
        </g>
      </g>
      <g id="Group_443" data-name="Group 443" transform="translate(12.567 21.591)">
        <g id="Group_442" data-name="Group 442">
          <path id="Path_721" data-name="Path 721" d="M94.611,98.76H90.393a.553.553,0,1,1,0-1.105h4.218a.553.553,0,1,1,0,1.105Z" transform="translate(-89.84 -97.655)"/>
        </g>
      </g>
      <g id="Group_445" data-name="Group 445" transform="translate(14.793 21.356)">
        <g id="Group_444" data-name="Group 444">
          <path id="Path_722" data-name="Path 722" d="M106.868,113.168h-3.9a3.057,3.057,0,0,1-3.054-3.054v-6.288a1.609,1.609,0,0,1,1.607-1.607h4.511a2.322,2.322,0,0,0,2.319-2.319V97.81a1.216,1.216,0,0,1,1.215-1.215h2.7a3.057,3.057,0,0,1,3.054,3.054v4.138a3.057,3.057,0,0,1-3.054,3.054h-2.337v3.274A3.057,3.057,0,0,1,106.868,113.168Zm-5.35-9.843a.5.5,0,0,0-.5.5v6.288a1.95,1.95,0,0,0,1.948,1.948h3.9a1.951,1.951,0,0,0,1.948-1.948v-3.827a.553.553,0,0,1,.553-.553h2.889a1.951,1.951,0,0,0,1.948-1.948V99.649a1.95,1.95,0,0,0-1.948-1.948h-2.7a.11.11,0,0,0-.109.109V99.9a3.428,3.428,0,0,1-3.425,3.425h-4.511Z" transform="translate(-99.91 -96.595)"/>
        </g>
      </g>
      <g id="Group_447" data-name="Group 447" transform="translate(19.363 30.497)">
        <g id="Group_446" data-name="Group 446">
          <path id="Path_723" data-name="Path 723" d="M125.351,139.041h-4.218a.553.553,0,1,1,0-1.105h4.218a.553.553,0,1,1,0,1.105Z" transform="translate(-120.58 -137.936)"/>
        </g>
      </g>
      <g id="Group_449" data-name="Group 449" transform="translate(14.676 17.372)">
        <g id="Group_448" data-name="Group 448">
          <path id="Path_724" data-name="Path 724" d="M100.987,81.789a1.607,1.607,0,1,1,1.607-1.607A1.609,1.609,0,0,1,100.987,81.789Zm0-2.109a.5.5,0,1,0,.5.5A.5.5,0,0,0,100.987,79.68Z" transform="translate(-99.38 -78.574)"/>
        </g>
      </g>
      <g id="Group_451" data-name="Group 451" transform="translate(19.363 32.606)">
        <g id="Group_450" data-name="Group 450">
          <path id="Path_725" data-name="Path 725" d="M122.187,150.691a1.607,1.607,0,1,1,1.607-1.607A1.609,1.609,0,0,1,122.187,150.691Zm0-2.109a.5.5,0,1,0,.5.5A.5.5,0,0,0,122.187,148.581Z" transform="translate(-120.58 -147.476)"/>
        </g>
      </g>
    </g>
  </g>
</svg>
