<svg id="react-native-icon" xmlns="http://www.w3.org/2000/svg" width="37.482" height="33.529" viewBox="0 0 37.482 33.529">
  <path id="Path_968" data-name="Path 968" d="M19.741,30.3C9.23,30.3,1,26.711,1,22.148S9.23,14,19.741,14s18.741,3.585,18.741,8.148S30.252,30.3,19.741,30.3Zm0-14.667C9.474,15.63,2.63,18.97,2.63,22.148s6.845,6.519,17.111,6.519,17.111-3.341,17.111-6.519S30.008,15.63,19.741,15.63Z" transform="translate(-1 -5.405)" fill="#80deea"/>
  <path id="Path_969" data-name="Path 969" d="M14.067,36.981a3.763,3.763,0,0,1-2.119-.57C7.956,34.129,9.016,25.247,14.23,16.121h0a35.52,35.52,0,0,1,8.393-10.1c3.178-2.444,6.03-3.178,7.985-2.037,2.037,1.141,2.77,3.993,2.282,7.985a35.028,35.028,0,0,1-4.563,12.385,35.52,35.52,0,0,1-8.393,10.1C17.816,36.085,15.779,36.981,14.067,36.981ZM28.571,5.04a8.686,8.686,0,0,0-4.889,2.2,35.036,35.036,0,0,0-7.985,9.7h0c-5.133,8.882-5.622,16.541-2.933,18.089,1.385.815,3.667.081,6.193-1.874a35.036,35.036,0,0,0,7.985-9.7,33.8,33.8,0,0,0,4.4-11.733c.407-3.259-.081-5.541-1.467-6.356A3.416,3.416,0,0,0,28.571,5.04Z" transform="translate(-2.578 -3.452)" fill="#80deea"/>
  <path id="Path_970" data-name="Path 970" d="M28.654,36.98c-4.074,0-9.941-4.97-14.341-12.711C9.017,15.143,7.958,6.261,11.95,3.98h0C15.943,1.7,23.113,6.995,28.41,16.121a35.028,35.028,0,0,1,4.563,12.385c.57,3.993-.244,6.763-2.282,7.985A4.417,4.417,0,0,1,28.654,36.98ZM12.765,5.365c-2.689,1.548-2.2,9.208,2.933,18.089S27.187,36.573,29.876,35.025c1.385-.815,1.874-3.1,1.467-6.356a33.8,33.8,0,0,0-4.4-11.733C21.81,8.054,15.454,3.817,12.765,5.365Z" transform="translate(-2.58 -3.451)" fill="#80deea"/>
  <circle id="Ellipse_449" data-name="Ellipse 449" cx="3.259" cy="3.259" r="3.259" transform="translate(15.482 13.484)" fill="#80deea"/>
</svg>
