<svg id="react-icon" xmlns="http://www.w3.org/2000/svg" width="35.6" height="35.6" viewBox="0 0 35.6 35.6">
  <path id="Path_977" data-name="Path 977" d="M0,0H35.6V35.6H0Z" fill="#253267"/>
  <circle id="Ellipse_450" data-name="Ellipse 450" cx="2.977" cy="2.977" r="2.977" transform="translate(14.796 14.802)" fill="#00c5de"/>
  <path id="Path_978" data-name="Path 978" d="M200.656,1191.9a33.411,33.411,0,0,1,10.508,1.537c3.373,1.161,5.446,2.921,5.446,4.515,0,1.661-2.2,3.531-5.819,4.73a38.5,38.5,0,0,1-20.477-.01c-3.5-1.2-5.614-3.091-5.614-4.72,0-1.581,1.98-3.327,5.306-4.486A33.714,33.714,0,0,1,200.656,1191.9Z" transform="translate(-182.883 -1180.174)" fill="none" stroke="#00c5de" stroke-miterlimit="10" stroke-width="1"/>
  <path id="Path_979" data-name="Path 979" d="M843.641,386.306a33.376,33.376,0,0,1,6.582-8.335c2.691-2.341,5.252-3.258,6.632-2.462,1.438.829,1.961,3.668,1.19,7.405a38.517,38.517,0,0,1-10.239,17.734c-2.787,2.437-5.483,3.318-6.894,2.5-1.369-.79-1.893-3.377-1.237-6.837A33.642,33.642,0,0,1,843.641,386.306Z" transform="translate(-831.137 -371.536)" fill="none" stroke="#00c5de" stroke-miterlimit="10" stroke-width="1"/>
  <path id="Path_980" data-name="Path 980" d="M844.523,395.556a33.413,33.413,0,0,1-3.934-9.865c-.685-3.5-.2-6.177,1.179-6.975,1.437-.832,4.157.133,7.01,2.666a38.519,38.519,0,0,1,10.25,17.726c.719,3.632.137,6.408-1.273,7.223-1.369.792-3.871-.046-6.541-2.343A33.7,33.7,0,0,1,844.523,395.556Z" transform="translate(-832.014 -374.701)" fill="none" stroke="#00c5de" stroke-miterlimit="10" stroke-width="1"/>
</svg>
