<svg xmlns="http://www.w3.org/2000/svg" width="88" height="87.906" viewBox="0 0 88 87.906">
  <g id="data_1_" data-name="data (1)" transform="translate(0 -0.5)">
    <path id="Path_541" data-name="Path 541" d="M88.439,79.07H11.873a4.38,4.38,0,0,1-4.381-4.38V12.373a4.381,4.381,0,0,1,4.381-4.381H88.439a4.38,4.38,0,0,1,4.38,4.381V74.69A4.38,4.38,0,0,1,88.439,79.07Zm0,0" transform="translate(-6.204 -6.205)" fill="#aad7ff"/>
    <path id="Path_542" data-name="Path 542" d="M457.055,12.376V74.693a4.38,4.38,0,0,1-4.38,4.38h-5.351a4.38,4.38,0,0,0,4.38-4.38V12.376A4.38,4.38,0,0,0,447.324,8h5.351A4.38,4.38,0,0,1,457.055,12.376Zm0,0" transform="translate(-370.44 -6.208)" fill="#5e88e9"/>
    <path id="Path_543" data-name="Path 543" d="M92.82,360.129H7.493V366.3a4.38,4.38,0,0,0,4.381,4.38H88.44a4.38,4.38,0,0,0,4.38-4.38Zm0,0" transform="translate(-6.206 -297.817)" fill="#5e88e9"/>
    <path id="Path_544" data-name="Path 544" d="M457.055,360.129V366.3a4.38,4.38,0,0,1-4.38,4.38h-5.351a4.38,4.38,0,0,0,4.38-4.38v-6.173Zm0,0" transform="translate(-370.44 -297.817)" fill="#4d47f3"/>
    <path id="Path_545" data-name="Path 545" d="M93.377,22.935H8.047V12.372a4.38,4.38,0,0,1,4.38-4.38H89a4.38,4.38,0,0,1,4.38,4.38Zm0,0" transform="translate(-6.664 -6.205)" fill="#5e88e9"/>
    <path id="Path_546" data-name="Path 546" d="M457.154,12.375V22.939H451.7V12.375A4.38,4.38,0,0,0,447.325,8h5.448A4.38,4.38,0,0,1,457.154,12.375Zm0,0" transform="translate(-370.44 -6.208)" fill="#4d47f3"/>
    <path id="Path_547" data-name="Path 547" d="M186.277,421.531h23.869v7.195H186.277Zm0,0" transform="translate(-154.261 -348.666)" fill="#4d47f3"/>
    <path id="Path_548" data-name="Path 548" d="M176.478,470.448H137.14a.859.859,0,0,1-.859-.859v-2.782a3.417,3.417,0,0,1,3.417-3.417H173.92a3.417,3.417,0,0,1,3.416,3.417v2.782a.858.858,0,0,1-.859.859Zm0,0" transform="translate(-112.858 -383.331)" fill="#5e88e9"/>
    <path id="Path_549" data-name="Path 549" d="M339.953,466.81v2.784a.859.859,0,0,1-.859.859h-3.031V466.81a3.417,3.417,0,0,0-3.415-3.415h3.889A3.416,3.416,0,0,1,339.953,466.81Zm0,0" transform="translate(-275.474 -383.334)" fill="#4d47f3"/>
    <path id="Path_550" data-name="Path 550" d="M295.477,275.613h27.888V280.9H295.477Zm0,0" transform="translate(-244.692 -227.828)" fill="#e3d9ff"/>
    <path id="Path_551" data-name="Path 551" d="M295.477,357.273h27.888v5.287H295.477Zm0,0" transform="translate(-244.692 -295.452)" fill="#e3d9ff"/>
    <path id="Path_552" data-name="Path 552" d="M438.551,275.613h3.3V280.9h-3.3Zm0,0" transform="translate(-363.175 -227.828)" fill="#b29af6"/>
    <path id="Path_553" data-name="Path 553" d="M438.551,357.273h3.3v5.287h-3.3Zm0,0" transform="translate(-363.175 -295.452)" fill="#b29af6"/>
    <g id="Group_294" data-name="Group 294" transform="translate(47.231 39.036)">
      <path id="Path_554" data-name="Path 554" d="M308.549,233.456H276.042a1.245,1.245,0,0,1-1.245-1.245v-6.259a1.246,1.246,0,0,1,1.245-1.245h32.507a1.246,1.246,0,0,1,1.245,1.245v6.259A1.245,1.245,0,0,1,308.549,233.456Zm0,0" transform="translate(-274.797 -224.707)" fill="#e3d9ff"/>
      <path id="Path_555" data-name="Path 555" d="M308.549,315.116H276.042a1.245,1.245,0,0,1-1.245-1.245v-6.259a1.246,1.246,0,0,1,1.245-1.245h32.507a1.246,1.246,0,0,1,1.245,1.245v6.259A1.245,1.245,0,0,1,308.549,315.116Zm0,0" transform="translate(-274.797 -292.331)" fill="#e3d9ff"/>
      <path id="Path_556" data-name="Path 556" d="M308.549,396.777H276.042a1.245,1.245,0,0,1-1.245-1.245v-6.259a1.245,1.245,0,0,1,1.245-1.245h32.507a1.245,1.245,0,0,1,1.245,1.245v6.259A1.245,1.245,0,0,1,308.549,396.777Zm0,0" transform="translate(-274.797 -359.957)" fill="#e3d9ff"/>
    </g>
    <path id="Path_557" data-name="Path 557" d="M458.5,225.956v6.259a1.244,1.244,0,0,1-1.245,1.245h-2.888a1.244,1.244,0,0,0,1.245-1.245v-6.259a1.244,1.244,0,0,0-1.245-1.245h2.888A1.244,1.244,0,0,1,458.5,225.956Zm0,0" transform="translate(-376.273 -185.674)" fill="#a88afc"/>
    <path id="Path_558" data-name="Path 558" d="M458.5,307.612v6.259a1.243,1.243,0,0,1-1.245,1.245h-2.888a1.243,1.243,0,0,0,1.245-1.245v-6.259a1.244,1.244,0,0,0-1.245-1.245h2.888A1.244,1.244,0,0,1,458.5,307.612Zm0,0" transform="translate(-376.273 -253.296)" fill="#a88afc"/>
    <path id="Path_559" data-name="Path 559" d="M458.5,389.276v6.259a1.245,1.245,0,0,1-1.245,1.245h-2.888a1.245,1.245,0,0,0,1.245-1.245v-6.259a1.244,1.244,0,0,0-1.245-1.245h2.888A1.244,1.244,0,0,1,458.5,389.276Zm0,0" transform="translate(-376.273 -320.924)" fill="#a88afc"/>
    <path id="Path_560" data-name="Path 560" d="M45.749,39.245a2.492,2.492,0,1,1-2.492-2.492A2.492,2.492,0,0,1,45.749,39.245Zm0,0" transform="translate(-33.759 -30.023)" fill="#5e88e9"/>
    <path id="Path_561" data-name="Path 561" d="M101.734,39.245a2.492,2.492,0,1,1-2.492-2.492A2.492,2.492,0,0,1,101.734,39.245Zm0,0" transform="translate(-80.121 -30.023)" fill="#5e88e9"/>
    <path id="Path_562" data-name="Path 562" d="M157.721,39.245a2.492,2.492,0,1,1-2.492-2.492A2.492,2.492,0,0,1,157.721,39.245Zm0,0" transform="translate(-126.486 -30.023)" fill="#5e88e9"/>
    <path id="Path_563" data-name="Path 563" d="M49.475,39.25a2.49,2.49,0,0,1-4.209,1.8,2.489,2.489,0,0,0,1.66-4.292.573.573,0,0,1,.058,0,2.49,2.49,0,0,1,2.49,2.492Zm0,0" transform="translate(-37.486 -30.026)" fill="#4d47f3"/>
    <path id="Path_564" data-name="Path 564" d="M105.456,39.25a2.491,2.491,0,0,1-4.21,1.8,2.489,2.489,0,0,0,1.662-4.292.528.528,0,0,1,.056,0,2.49,2.49,0,0,1,2.492,2.492Zm0,0" transform="translate(-83.845 -30.026)" fill="#4d47f3"/>
    <path id="Path_565" data-name="Path 565" d="M161.445,39.25a2.492,2.492,0,0,1-4.211,1.8,2.489,2.489,0,0,0,1.66-4.292.573.573,0,0,1,.058,0,2.492,2.492,0,0,1,2.492,2.492Zm0,0" transform="translate(-130.21 -30.026)" fill="#4d47f3"/>
    <path id="Path_566" data-name="Path 566" d="M37.688,137.545a1.288,1.288,0,0,0,1.821-1.822L36.383,132.6l3.127-3.127a1.288,1.288,0,1,0-1.821-1.821l-4.038,4.038a1.288,1.288,0,0,0,0,1.821Zm0,0" transform="translate(-27.555 -104.982)"/>
    <path id="Path_567" data-name="Path 567" d="M116.435,132.593l-3.127,3.127a1.288,1.288,0,1,0,1.821,1.821l4.038-4.038a1.287,1.287,0,0,0,0-1.821l-4.038-4.038a1.288,1.288,0,0,0-1.821,1.822Zm0,0" transform="translate(-93.521 -104.979)"/>
    <path id="Path_568" data-name="Path 568" d="M77.234,137.828a1.288,1.288,0,0,0,1.67-.728l3.172-8.076a1.288,1.288,0,1,0-2.4-.942l-3.173,8.076A1.288,1.288,0,0,0,77.234,137.828Zm0,0" transform="translate(-63.283 -104.977)"/>
    <path id="Path_569" data-name="Path 569" d="M38.8,220.791H47.48a1.288,1.288,0,0,0,0-2.576H38.8a1.288,1.288,0,0,0,0,2.576Zm0,0" transform="translate(-31.068 -180.295)"/>
    <path id="Path_570" data-name="Path 570" d="M132.054,218.215H116.8a1.288,1.288,0,0,0,0,2.576h15.254a1.288,1.288,0,1,0,0-2.576Zm0,0" transform="translate(-95.658 -180.295)"/>
    <path id="Path_571" data-name="Path 571" d="M38.8,252.4h3.7a1.288,1.288,0,0,0,0-2.576H38.8a1.288,1.288,0,0,0,0,2.576Zm0,0" transform="translate(-31.068 -206.469)"/>
    <path id="Path_572" data-name="Path 572" d="M178.136,249.82a1.288,1.288,0,0,0,0,2.576h2.251a1.288,1.288,0,1,0,0-2.576Zm0,0" transform="translate(-146.452 -206.468)"/>
    <path id="Path_573" data-name="Path 573" d="M98.943,251.109a1.288,1.288,0,0,0-1.288-1.288H86.6a1.288,1.288,0,0,0,0,2.576H97.655A1.288,1.288,0,0,0,98.943,251.109Zm0,0" transform="translate(-70.65 -206.469)"/>
    <path id="Path_574" data-name="Path 574" d="M213.7,251.109a1.288,1.288,0,0,0,1.288,1.288h4.216a1.288,1.288,0,1,0,0-2.576h-4.216A1.288,1.288,0,0,0,213.7,251.109Zm0,0" transform="translate(-176.973 -206.469)"/>
    <path id="Path_575" data-name="Path 575" d="M166.687,151.854h4.447a1.288,1.288,0,1,0,0-2.576h-4.447a1.288,1.288,0,1,0,0,2.576Zm0,0" transform="translate(-136.971 -123.206)"/>
    <path id="Path_576" data-name="Path 576" d="M221.534,151.854h27.132a1.288,1.288,0,0,0,0-2.576H221.534a1.288,1.288,0,1,0,0,2.576Zm0,0" transform="translate(-182.391 -123.206)"/>
    <path id="Path_577" data-name="Path 577" d="M302.462,182.246H291.471a1.288,1.288,0,0,0,0,2.576h10.991a1.288,1.288,0,0,0,0-2.576Zm0,0" transform="translate(-240.308 -150.508)"/>
    <path id="Path_578" data-name="Path 578" d="M249.292,182.246h-3.778a1.288,1.288,0,0,0,0,2.576h3.778a1.288,1.288,0,0,0,0-2.576Zm0,0" transform="translate(-202.25 -150.508)"/>
    <path id="Path_579" data-name="Path 579" d="M166.687,184.822h9.255a1.288,1.288,0,0,0,0-2.576h-9.255a1.288,1.288,0,1,0,0,2.576Zm0,0" transform="translate(-136.971 -150.508)"/>
    <path id="Path_580" data-name="Path 580" d="M109.21,281.16h-8.676a1.288,1.288,0,1,0,0,2.575h8.676a1.288,1.288,0,1,0,0-2.575Zm0,0" transform="translate(-82.189 -232.421)"/>
    <path id="Path_581" data-name="Path 581" d="M45.469,281.16H38.8a1.288,1.288,0,0,0,0,2.575h6.666a1.288,1.288,0,0,0,0-2.575Zm0,0" transform="translate(-31.068 -232.421)"/>
    <path id="Path_582" data-name="Path 582" d="M187.911,281.16H176.577a1.288,1.288,0,0,0,0,2.575h11.334a1.288,1.288,0,0,0,0-2.575Zm0,0" transform="translate(-145.162 -232.421)"/>
    <path id="Path_583" data-name="Path 583" d="M301.833,242.668h-6.2a1.288,1.288,0,0,0,0,2.576h6.2a1.288,1.288,0,0,0,0-2.576Zm0,0" transform="translate(-243.756 -200.545)"/>
    <path id="Path_584" data-name="Path 584" d="M394.265,245.244h8.749a1.288,1.288,0,1,0,0-2.576h-8.749a1.288,1.288,0,0,0,0,2.576Zm0,0" transform="translate(-325.434 -200.545)"/>
    <path id="Path_585" data-name="Path 585" d="M359.149,242.668h-2a1.288,1.288,0,1,0,0,2.576h2a1.288,1.288,0,0,0,0-2.576Zm0,0" transform="translate(-294.693 -200.545)"/>
    <path id="Path_586" data-name="Path 586" d="M295.636,326.9h6.2a1.288,1.288,0,1,0,0-2.575h-6.2a1.288,1.288,0,1,0,0,2.575Zm0,0" transform="translate(-243.757 -268.17)"/>
    <path id="Path_587" data-name="Path 587" d="M394.265,326.9h8.749a1.288,1.288,0,1,0,0-2.575h-8.749a1.288,1.288,0,0,0,0,2.575Zm0,0" transform="translate(-325.434 -268.17)"/>
    <path id="Path_588" data-name="Path 588" d="M357.148,326.9h2a1.288,1.288,0,1,0,0-2.575h-2a1.288,1.288,0,1,0,0,2.575Zm0,0" transform="translate(-294.696 -268.17)"/>
    <path id="Path_589" data-name="Path 589" d="M301.833,405.988h-6.2a1.288,1.288,0,1,0,0,2.575h6.2a1.288,1.288,0,0,0,0-2.575Zm0,0" transform="translate(-243.756 -335.794)"/>
    <path id="Path_590" data-name="Path 590" d="M403.013,405.988h-8.749a1.288,1.288,0,1,0,0,2.575h8.749a1.288,1.288,0,1,0,0-2.575Zm0,0" transform="translate(-325.434 -335.794)"/>
    <path id="Path_591" data-name="Path 591" d="M359.149,405.988h-2a1.288,1.288,0,1,0,0,2.575h2a1.288,1.288,0,0,0,0-2.575Zm0,0" transform="translate(-294.693 -335.794)"/>
    <path id="Path_592" data-name="Path 592" d="M82.332.5H5.668A5.675,5.675,0,0,0,0,6.168V68.485a5.675,5.675,0,0,0,5.669,5.668h4.847a1.288,1.288,0,0,0,0-2.575H5.668a3.1,3.1,0,0,1-3.092-3.092V63.6H49.5v2.22H48.476a2.536,2.536,0,0,0-2.533,2.533v3.225h-27.6a1.288,1.288,0,0,0,0,2.575H30.728v4.619H26.84a4.71,4.71,0,0,0-4.7,4.7v2.782a2.149,2.149,0,0,0,2.146,2.146H63.62a2.149,2.149,0,0,0,2.146-2.146V83.476a4.71,4.71,0,0,0-4.7-4.7H57.173V77.144h23.81a2.535,2.535,0,0,0,2.532-2.533V74a5.676,5.676,0,0,0,4.387-5.52L88,6.168A5.673,5.673,0,0,0,82.332.5ZM48.519,60.533V54.36H80.94v6.173Zm3.554-8.75v-2.71H77.385v2.71ZM77.385,63.108v2.71H52.073v-2.71ZM33.3,74.153H45.943v.459a2.535,2.535,0,0,0,2.533,2.532H54.6v1.628H33.3Zm27.759,7.2a2.131,2.131,0,0,1,2.128,2.128V85.83H24.711V83.476a2.131,2.131,0,0,1,2.129-2.128Zm19.877-6.78H48.519V68.395H80.94Zm4.387-6.083a3.093,3.093,0,0,1-1.811,2.81V68.351a2.536,2.536,0,0,0-2.533-2.532H79.961V63.6h5.365Zm0-7.461H83.474c.026-.146.042-6.707.042-6.707a2.536,2.536,0,0,0-2.533-2.533H79.961v-2.71h1.021a2.536,2.536,0,0,0,2.533-2.533V40.281a2.536,2.536,0,0,0-2.533-2.533H73.708a1.288,1.288,0,0,0,0,2.576H80.94V46.5H48.519V40.324H65.694a1.288,1.288,0,0,0,0-2.576H48.476a2.536,2.536,0,0,0-2.533,2.533v6.259a2.536,2.536,0,0,0,2.533,2.533H49.5v2.71H48.476a2.536,2.536,0,0,0-2.533,2.533s.016,6.562.042,6.707H2.575v-43H85.326Zm0-45.581H2.67V6.168A3.1,3.1,0,0,1,5.763,3.076H82.234a3.1,3.1,0,0,1,3.092,3.092Zm0,0"/>
    <path id="Path_593" data-name="Path 593" d="M37.053,29.262a3.78,3.78,0,1,0,3.78,3.779A3.783,3.783,0,0,0,37.053,29.262Zm0,4.983a1.2,1.2,0,1,1,1.2-1.2A1.205,1.205,0,0,1,37.053,34.245Zm0,0" transform="translate(-27.555 -23.818)"/>
    <path id="Path_594" data-name="Path 594" d="M93.038,29.262a3.78,3.78,0,1,0,3.779,3.779A3.784,3.784,0,0,0,93.038,29.262Zm0,4.983a1.2,1.2,0,1,1,1.2-1.2A1.2,1.2,0,0,1,93.038,34.245Zm0,0" transform="translate(-73.917 -23.818)"/>
    <path id="Path_595" data-name="Path 595" d="M149.025,29.262a3.78,3.78,0,1,0,3.78,3.779A3.783,3.783,0,0,0,149.025,29.262Zm0,4.983a1.2,1.2,0,1,1,1.2-1.2A1.205,1.205,0,0,1,149.025,34.245Zm0,0" transform="translate(-120.282 -23.818)"/>
  </g>
</svg>
